<?xml version="1.0" standalone="yes"?>

<svg version="1.1" viewBox="0.0 0.0 900.3412073490814 505.9160104986877" fill="none" stroke="none" stroke-linecap="square" stroke-miterlimit="10" xmlns="http://www.w3.org/2000/svg" xmlns:xlink="http://www.w3.org/1999/xlink"><clipPath id="p.0"><path d="m0 0l900.3412 0l0 505.91602l-900.3412 0l0 -505.91602z" clip-rule="nonzero"></path></clipPath><g clip-path="url(#p.0)"><path fill="#000000" fill-opacity="0.0" d="m0 0l900.3412 0l0 505.91602l-900.3412 0z" fill-rule="evenodd"></path><path fill="#ffffff" d="m231.38048 16.905512l179.65355 0l0 179.65353l-179.65355 0z" fill-rule="evenodd"></path><path stroke="#000000" stroke-width="3.0" stroke-linejoin="round" stroke-linecap="butt" d="m231.38048 16.905512l179.65355 0l0 179.65353l-179.65355 0z" fill-rule="evenodd"></path><path fill="#cfe2f3" d="m254.34908 69.314964l0 0c0 -16.533756 13.403275 -29.937012 29.937027 -29.937012l0 0c7.939789 0 15.554382 3.154068 21.16864 8.768345c5.6142883 5.6142807 8.768341 13.228874 8.768341 21.168667l0 0c0 16.533752 -13.403229 29.937004 -29.936981 29.937004l0 0c-16.533752 0 -29.937027 -13.403252 -29.937027 -29.937004z" fill-rule="evenodd"></path><path stroke="#000000" stroke-width="3.0" stroke-linejoin="round" stroke-linecap="butt" d="m254.34908 69.314964l0 0c0 -16.533756 13.403275 -29.937012 29.937027 -29.937012l0 0c7.939789 0 15.554382 3.154068 21.16864 8.768345c5.6142883 5.6142807 8.768341 13.228874 8.768341 21.168667l0 0c0 16.533752 -13.403229 29.937004 -29.936981 29.937004l0 0c-16.533752 0 -29.937027 -13.403252 -29.937027 -29.937004z" fill-rule="evenodd"></path><path fill="#d9ead3" d="m323.59055 99.25197l34.614166 -59.874016l34.614197 59.874016z" fill-rule="evenodd"></path><path stroke="#000000" stroke-width="3.0" stroke-linejoin="round" stroke-linecap="butt" d="m323.59055 99.25197l34.614166 -59.874016l34.614197 59.874016z" fill-rule="evenodd"></path><path fill="#e6b8af" d="m249.67192 146.03937l34.61418 -34.614174l34.614166 34.614174l-34.614166 34.61418z" fill-rule="evenodd"></path><path stroke="#000000" stroke-width="3.0" stroke-linejoin="round" stroke-linecap="butt" d="m249.67192 146.03937l34.61418 -34.614174l34.614166 34.614174l-34.614166 34.61418z" fill-rule="evenodd"></path><path fill="#ffffff" d="m489.30756 16.905512l179.65356 0l0 179.65353l-179.65356 0z" fill-rule="evenodd"></path><path stroke="#000000" stroke-width="3.0" stroke-linejoin="round" stroke-linecap="butt" d="m489.30756 16.905512l179.65356 0l0 179.65353l-179.65356 0z" fill-rule="evenodd"></path><path fill="#cfe2f3" d="m512.2762 69.314964l0 0c0 -16.533756 13.403259 -29.937012 29.937012 -29.937012l0 0c7.9397583 0 15.554382 3.154068 21.16864 8.768345c5.614258 5.6142807 8.768372 13.228874 8.768372 21.168667l0 0c0 16.533752 -13.403259 29.937004 -29.937012 29.937004l0 0c-16.533752 0 -29.937012 -13.403252 -29.937012 -29.937004z" fill-rule="evenodd"></path><path stroke="#000000" stroke-width="3.0" stroke-linejoin="round" stroke-linecap="butt" d="m512.2762 69.314964l0 0c0 -16.533756 13.403259 -29.937012 29.937012 -29.937012l0 0c7.9397583 0 15.554382 3.154068 21.16864 8.768345c5.614258 5.6142807 8.768372 13.228874 8.768372 21.168667l0 0c0 16.533752 -13.403259 29.937004 -29.937012 29.937004l0 0c-16.533752 0 -29.937012 -13.403252 -29.937012 -29.937004z" fill-rule="evenodd"></path><path fill="#d9ead3" d="m507.599 179.82475l34.614197 -59.874016l34.614136 59.874016z" fill-rule="evenodd"></path><path stroke="#000000" stroke-width="3.0" stroke-linejoin="round" stroke-linecap="butt" d="m507.599 179.82475l34.614197 -59.874016l34.614136 59.874016z" fill-rule="evenodd"></path><path fill="#e6b8af" d="m578.1646 69.314964l34.614197 -34.614178l34.614136 34.614178l-34.614136 34.614166z" fill-rule="evenodd"></path><path stroke="#000000" stroke-width="3.0" stroke-linejoin="round" stroke-linecap="butt" d="m578.1646 69.314964l34.614197 -34.614178l34.614136 34.614178l-34.614136 34.614166z" fill-rule="evenodd"></path><path fill="#ffffff" d="m231.38048 271.7487l179.65355 0l0 179.65353l-179.65355 0z" fill-rule="evenodd"></path><path stroke="#000000" stroke-width="3.0" stroke-linejoin="round" stroke-linecap="butt" d="m231.38048 271.7487l179.65355 0l0 179.65353l-179.65355 0z" fill-rule="evenodd"></path><path fill="#cfe2f3" d="m328.26773 324.15552l0 0c0 -16.533752 13.403229 -29.937012 29.936981 -29.937012l0 0c7.939789 0 15.554382 3.1540833 21.16867 8.768341c5.6142883 5.6142883 8.768341 13.228882 8.768341 21.16867l0 0c0 16.533752 -13.403259 29.937012 -29.937012 29.937012l0 0c-16.533752 0 -29.936981 -13.403259 -29.936981 -29.937012z" fill-rule="evenodd"></path><path stroke="#000000" stroke-width="3.0" stroke-linejoin="round" stroke-linecap="butt" d="m328.26773 324.15552l0 0c0 -16.533752 13.403229 -29.937012 29.936981 -29.937012l0 0c7.939789 0 15.554382 3.1540833 21.16867 8.768341c5.6142883 5.6142883 8.768341 13.228882 8.768341 21.16867l0 0c0 16.533752 -13.403259 29.937012 -29.937012 29.937012l0 0c-16.533752 0 -29.936981 -13.403259 -29.936981 -29.937012z" fill-rule="evenodd"></path><path fill="#d9ead3" d="m323.59055 430.81955l34.614166 -59.873993l34.614197 59.873993z" fill-rule="evenodd"></path><path stroke="#000000" stroke-width="3.0" stroke-linejoin="round" stroke-linecap="butt" d="m323.59055 430.81955l34.614166 -59.873993l34.614197 59.873993z" fill-rule="evenodd"></path><path fill="#e6b8af" d="m249.67192 324.15814l34.61418 -34.614166l34.614166 34.614166l-34.614166 34.614166z" fill-rule="evenodd"></path><path stroke="#000000" stroke-width="3.0" stroke-linejoin="round" stroke-linecap="butt" d="m249.67192 324.15814l34.61418 -34.614166l34.614166 34.614166l-34.614166 34.614166z" fill-rule="evenodd"></path><path fill="#000000" fill-opacity="0.0" d="m189.04987 197.09764l273.66928 0l0 42.204727l-273.66928 0z" fill-rule="evenodd"></path><path fill="#000000" d="m295.45483 236.81764l0 -11.140625q0 -2.046875 -0.875 -3.0625q-0.875 -1.03125 -2.71875 -1.03125q-2.421875 0 -3.578125 1.390625q-1.15625 1.390625 -1.15625 4.28125l0 9.5625l-2.59375 0l0 -11.140625q0 -2.046875 -0.875 -3.0625q-0.875 -1.03125 -2.734375 -1.03125q-2.4375 0 -3.578125 1.46875q-1.125 1.453125 -1.125 4.78125l0 8.984375l-2.59375 0l0 -17.125l2.109375 0l0.421875 2.34375l0.125 0q0.734375 -1.25 2.0625 -1.953125q1.34375 -0.703125 3.0 -0.703125q4.015625 0 5.25 2.90625l0.125 0q0.765625 -1.34375 2.21875 -2.125q1.453125 -0.78125 3.3125 -0.78125q2.90625 0 4.34375 1.5q1.453125 1.484375 1.453125 4.765625l0 11.171875l-2.59375 0zm22.71875 -8.578125q0 4.1875 -2.109375 6.546875q-2.109375 2.34375 -5.828125 2.34375q-2.296875 0 -4.078125 -1.078125q-1.78125 -1.078125 -2.75 -3.09375q-0.96875 -2.015625 -0.96875 -4.71875q0 -4.1875 2.09375 -6.515625q2.09375 -2.34375 5.8125 -2.34375q3.59375 0 5.703125 2.390625q2.125 2.390625 2.125 6.46875zm-13.046875 0q0 3.28125 1.3125 5.0q1.3125 1.71875 3.859375 1.71875q2.546875 0 3.859375 -1.703125q1.328125 -1.71875 1.328125 -5.015625q0 -3.265625 -1.328125 -4.953125q-1.3125 -1.703125 -3.890625 -1.703125q-2.546875 0 -3.84375 1.671875q-1.296875 1.671875 -1.296875 4.984375zm29.25 6.28125l-0.140625 0q-1.796875 2.609375 -5.375 2.609375q-3.359375 0 -5.234375 -2.296875q-1.859375 -2.296875 -1.859375 -6.53125q0 -4.234375 1.875 -6.578125q1.875 -2.34375 5.21875 -2.34375q3.484375 0 5.34375 2.53125l0.203125 0l-0.109375 -1.234375l-0.0625 -1.203125l0 -6.96875l2.59375 0l0 24.3125l-2.109375 0l-0.34375 -2.296875zm-5.1875 0.4375q2.65625 0 3.84375 -1.4375q1.203125 -1.453125 1.203125 -4.671875l0 -0.546875q0 -3.640625 -1.21875 -5.1875q-1.203125 -1.5625 -3.859375 -1.5625q-2.28125 0 -3.5 1.78125q-1.203125 1.765625 -1.203125 5.0q0 3.28125 1.203125 4.953125q1.203125 1.671875 3.53125 1.671875zm20.375 2.171875q-3.796875 0 -6.0 -2.3125q-2.1875 -2.3125 -2.1875 -6.421875q0 -4.140625 2.03125 -6.578125q2.046875 -2.4375 5.484375 -2.4375q3.21875 0 5.09375 2.125q1.875 2.109375 1.875 5.578125l0 1.640625l-11.796875 0q0.078125 3.015625 1.515625 4.578125q1.453125 1.5625 4.078125 1.5625q2.765625 0 5.46875 -1.15625l0 2.3125q-1.375 0.59375 -2.609375 0.84375q-1.21875 0.265625 -2.953125 0.265625zm-0.703125 -15.578125q-2.0625 0 -3.296875 1.34375q-1.21875 1.34375 -1.4375 3.71875l8.953125 0q0 -2.453125 -1.09375 -3.75q-1.09375 -1.3125 -3.125 -1.3125zm14.015625 15.265625l-2.59375 0l0 -24.3125l2.59375 0l0 24.3125zm16.546875 -4.671875q0 2.390625 -1.78125 3.6875q-1.78125 1.296875 -5.0 1.296875q-3.40625 0 -5.3125 -1.078125l0 -2.40625q1.234375 0.625 2.640625 0.984375q1.421875 0.359375 2.734375 0.359375q2.03125 0 3.125 -0.640625q1.09375 -0.65625 1.09375 -1.984375q0 -1.0 -0.875 -1.703125q-0.859375 -0.71875 -3.375 -1.6875q-2.390625 -0.890625 -3.40625 -1.546875q-1.0 -0.671875 -1.5 -1.515625q-0.484375 -0.84375 -0.484375 -2.015625q0 -2.09375 1.703125 -3.296875q1.703125 -1.21875 4.671875 -1.21875q2.765625 0 5.40625 1.125l-0.921875 2.109375q-2.578125 -1.0625 -4.671875 -1.0625q-1.84375 0 -2.78125 0.578125q-0.9375 0.578125 -0.9375 1.59375q0 0.6875 0.34375 1.171875q0.359375 0.484375 1.140625 0.921875q0.78125 0.4375 3.0 1.265625q3.046875 1.109375 4.109375 2.234375q1.078125 1.125 1.078125 2.828125z" fill-rule="nonzero"></path><path fill="#000000" fill-opacity="0.0" d="m442.29922 200.52284l273.66928 0l0 42.204727l-273.66928 0z" fill-rule="evenodd"></path><path fill="#000000" d="m508.5479 240.55534q-3.71875 0 -5.765625 -2.28125q-2.03125 -2.296875 -2.03125 -6.484375q0 -4.296875 2.0625 -6.640625q2.078125 -2.34375 5.90625 -2.34375q1.234375 0 2.46875 0.265625q1.234375 0.265625 1.9375 0.625l-0.796875 2.203125q-0.859375 -0.34375 -1.875 -0.5625q-1.015625 -0.234375 -1.796875 -0.234375q-5.21875 0 -5.21875 6.65625q0 3.15625 1.265625 4.84375q1.28125 1.6875 3.78125 1.6875q2.140625 0 4.390625 -0.921875l0 2.296875q-1.71875 0.890625 -4.328125 0.890625zm23.171875 -8.890625q0 4.1875 -2.109375 6.546875q-2.109375 2.34375 -5.828125 2.34375q-2.296875 0 -4.078125 -1.078125q-1.78125 -1.078125 -2.75 -3.09375q-0.96875 -2.015625 -0.96875 -4.71875q0 -4.1875 2.09375 -6.515625q2.09375 -2.34375 5.8125 -2.34375q3.59375 0 5.703125 2.390625q2.125 2.390625 2.125 6.46875zm-13.046875 0q0 3.28125 1.3125 5.0q1.3125 1.71875 3.859375 1.71875q2.546875 0 3.859375 -1.703125q1.328125 -1.71875 1.328125 -5.015625q0 -3.265625 -1.328125 -4.953125q-1.3125 -1.703125 -3.890625 -1.703125q-2.546875 0 -3.84375 1.671875q-1.296875 1.671875 -1.296875 4.984375zm29.3125 8.578125l0 -11.078125q0 -2.09375 -0.953125 -3.125q-0.953125 -1.03125 -2.984375 -1.03125q-2.6875 0 -3.9375 1.453125q-1.25 1.453125 -1.25 4.796875l0 8.984375l-2.59375 0l0 -17.125l2.109375 0l0.421875 2.34375l0.125 0q0.796875 -1.265625 2.234375 -1.953125q1.4375 -0.703125 3.203125 -0.703125q3.09375 0 4.65625 1.5q1.5625 1.484375 1.5625 4.765625l0 11.171875l-2.59375 0zm13.453125 -1.828125q0.6875 0 1.328125 -0.09375q0.640625 -0.109375 1.015625 -0.21875l0 1.984375q-0.421875 0.203125 -1.25 0.328125q-0.8125 0.140625 -1.46875 0.140625q-4.96875 0 -4.96875 -5.234375l0 -10.1875l-2.453125 0l0 -1.25l2.453125 -1.078125l1.09375 -3.65625l1.5 0l0 3.96875l4.96875 0l0 2.015625l-4.96875 0l0 10.078125q0 1.546875 0.734375 2.375q0.734375 0.828125 2.015625 0.828125zm13.578125 -15.609375q1.140625 0 2.046875 0.1875l-0.359375 2.40625q-1.0625 -0.234375 -1.875 -0.234375q-2.078125 0 -3.5625 1.6875q-1.46875 1.6875 -1.46875 4.203125l0 9.1875l-2.59375 0l0 -17.125l2.140625 0l0.296875 3.171875l0.125 0q0.953125 -1.671875 2.296875 -2.578125q1.34375 -0.90625 2.953125 -0.90625zm20.03125 8.859375q0 4.1875 -2.109375 6.546875q-2.109375 2.34375 -5.828125 2.34375q-2.296875 0 -4.078125 -1.078125q-1.78125 -1.078125 -2.75 -3.09375q-0.96875 -2.015625 -0.96875 -4.71875q0 -4.1875 2.09375 -6.515625q2.09375 -2.34375 5.8125 -2.34375q3.59375 0 5.703125 2.390625q2.125 2.390625 2.125 6.46875zm-13.046875 0q0 3.28125 1.3125 5.0q1.3125 1.71875 3.859375 1.71875q2.546875 0 3.859375 -1.703125q1.328125 -1.71875 1.328125 -5.015625q0 -3.265625 -1.328125 -4.953125q-1.3125 -1.703125 -3.890625 -1.703125q-2.546875 0 -3.84375 1.671875q-1.296875 1.671875 -1.296875 4.984375zm20.1875 8.578125l-2.59375 0l0 -24.3125l2.59375 0l0 24.3125zm8.09375 0l-2.59375 0l0 -24.3125l2.59375 0l0 24.3125zm12.734375 0.3125q-3.796875 0 -6.0 -2.3125q-2.1875 -2.3125 -2.1875 -6.421875q0 -4.140625 2.03125 -6.578125q2.046875 -2.4375 5.484375 -2.4375q3.21875 0 5.09375 2.125q1.875 2.109375 1.875 5.578125l0 1.640625l-11.796875 0q0.078125 3.015625 1.515625 4.578125q1.453125 1.5625 4.078125 1.5625q2.765625 0 5.46875 -1.15625l0 2.3125q-1.375 0.59375 -2.609375 0.84375q-1.21875 0.265625 -2.953125 0.265625zm-0.703125 -15.578125q-2.0625 0 -3.296875 1.34375q-1.21875 1.34375 -1.4375 3.71875l8.953125 0q0 -2.453125 -1.09375 -3.75q-1.09375 -1.3125 -3.125 -1.3125zm19.234375 -2.171875q1.140625 0 2.046875 0.1875l-0.359375 2.40625q-1.0625 -0.234375 -1.875 -0.234375q-2.078125 0 -3.5625 1.6875q-1.46875 1.6875 -1.46875 4.203125l0 9.1875l-2.59375 0l0 -17.125l2.140625 0l0.296875 3.171875l0.125 0q0.953125 -1.671875 2.296875 -2.578125q1.34375 -0.90625 2.953125 -0.90625zm16.296875 12.765625q0 2.390625 -1.78125 3.6875q-1.78125 1.296875 -5.0 1.296875q-3.40625 0 -5.3125 -1.078125l0 -2.40625q1.234375 0.625 2.640625 0.984375q1.421875 0.359375 2.734375 0.359375q2.03125 0 3.125 -0.640625q1.09375 -0.65625 1.09375 -1.984375q0 -1.0 -0.875 -1.703125q-0.859375 -0.71875 -3.375 -1.6875q-2.390625 -0.890625 -3.40625 -1.546875q-1.0 -0.671875 -1.5 -1.515625q-0.484375 -0.84375 -0.484375 -2.015625q0 -2.09375 1.703125 -3.296875q1.703125 -1.21875 4.671875 -1.21875q2.765625 0 5.40625 1.125l-0.921875 2.109375q-2.578125 -1.0625 -4.671875 -1.0625q-1.84375 0 -2.78125 0.578125q-0.9375 0.578125 -0.9375 1.59375q0 0.6875 0.34375 1.171875q0.359375 0.484375 1.140625 0.921875q0.78125 0.4375 3.0 1.265625q3.046875 1.109375 4.109375 2.234375q1.078125 1.125 1.078125 2.828125z" fill-rule="nonzero"></path><path fill="#000000" fill-opacity="0.0" d="m184.3727 446.8063l273.6693 0l0 42.204712l-273.6693 0z" fill-rule="evenodd"></path><path fill="#000000" d="m286.59015 486.5263l-6.5 -17.125l2.78125 0l3.6875 10.15625q1.25 3.5625 1.46875 4.625l0.125 0q0.171875 -0.828125 1.078125 -3.421875q0.921875 -2.609375 4.109375 -11.359375l2.78125 0l-6.5 17.125l-3.03125 0zm14.875 0l-2.59375 0l0 -17.125l2.59375 0l0 17.125zm-2.8125 -21.765625q0 -0.890625 0.4375 -1.296875q0.4375 -0.421875 1.09375 -0.421875q0.625 0 1.078125 0.421875q0.453125 0.421875 0.453125 1.296875q0 0.875 -0.453125 1.3125q-0.453125 0.421875 -1.078125 0.421875q-0.65625 0 -1.09375 -0.421875q-0.4375 -0.4375 -0.4375 -1.3125zm15.5469055 22.078125q-3.7969055 0 -6.0000305 -2.3125q-2.1875 -2.3125 -2.1875 -6.421875q0 -4.140625 2.03125 -6.578125q2.046875 -2.4375 5.4844055 -2.4375q3.21875 0 5.09375 2.125q1.875 2.109375 1.875 5.578125l0 1.640625l-11.7969055 0q0.078125 3.015625 1.515625 4.578125q1.453125 1.5625 4.0781555 1.5625q2.765625 0 5.46875 -1.15625l0 2.3125q-1.375 0.59375 -2.609375 0.84375q-1.21875 0.265625 -2.953125 0.265625zm-0.703125 -15.578125q-2.0625305 0 -3.2969055 1.34375q-1.21875 1.34375 -1.4375 3.71875l8.9531555 0q0 -2.453125 -1.09375 -3.75q-1.09375 -1.3125 -3.125 -1.3125zm25.40625 15.265625l-3.140625 -10.046875q-0.296875 -0.921875 -1.109375 -4.1875l-0.125 0q-0.625 2.734375 -1.09375 4.21875l-3.234375 10.015625l-3.0 0l-4.671875 -17.125l2.71875 0q1.65625 6.453125 2.515625 9.828125q0.875 3.375 1.0 4.546875l0.125 0q0.171875 -0.890625 0.546875 -2.296875q0.390625 -1.421875 0.671875 -2.25l3.140625 -9.828125l2.8125 0l3.0625 9.828125q0.875 2.6875 1.1875 4.515625l0.125 0q0.0625 -0.5625 0.328125 -1.734375q0.28125 -1.171875 3.265625 -12.609375l2.6875 0l-4.734375 17.125l-3.078125 0zm21.953125 -4.671875q0 2.390625 -1.78125 3.6875q-1.78125 1.296875 -5.0 1.296875q-3.40625 0 -5.3125 -1.078125l0 -2.40625q1.234375 0.625 2.640625 0.984375q1.421875 0.359375 2.734375 0.359375q2.03125 0 3.125 -0.640625q1.09375 -0.65625 1.09375 -1.984375q0 -1.0 -0.875 -1.703125q-0.859375 -0.71875 -3.375 -1.6875q-2.390625 -0.890625 -3.40625 -1.546875q-1.0 -0.671875 -1.5 -1.515625q-0.484375 -0.84375 -0.484375 -2.015625q0 -2.09375 1.703125 -3.296875q1.703125 -1.21875 4.671875 -1.21875q2.765625 0 5.40625 1.125l-0.921875 2.109375q-2.578125 -1.0625 -4.671875 -1.0625q-1.84375 0 -2.78125 0.578125q-0.9375 0.578125 -0.9375 1.59375q0 0.6875 0.34375 1.171875q0.359375 0.484375 1.140625 0.921875q0.78125 0.4375 3.0 1.265625q3.046875 1.109375 4.109375 2.234375q1.078125 1.125 1.078125 2.828125z" fill-rule="nonzero"></path><path fill="#ffffff" d="m489.307 271.74738l179.6535 0l0 179.65353l-179.6535 0z" fill-rule="evenodd"></path><path stroke="#000000" stroke-width="3.0" stroke-linejoin="round" stroke-linecap="butt" d="m489.307 271.74738l179.6535 0l0 179.65353l-179.6535 0z" fill-rule="evenodd"></path><path fill="#cfe2f3" d="m512.2756 402.78806l0 0c0 -16.533752 13.403259 -29.937012 29.937012 -29.937012l0 0c7.9398193 0 15.554382 3.1540833 21.168701 8.768372c5.614258 5.614258 8.768311 13.228851 8.768311 21.16864l0 0c0 16.533752 -13.403259 29.937012 -29.937012 29.937012l0 0c-16.533752 0 -29.937012 -13.403259 -29.937012 -29.937012z" fill-rule="evenodd"></path><path stroke="#000000" stroke-width="3.0" stroke-linejoin="round" stroke-linecap="butt" d="m512.2756 402.78806l0 0c0 -16.533752 13.403259 -29.937012 29.937012 -29.937012l0 0c7.9398193 0 15.554382 3.1540833 21.168701 8.768372c5.614258 5.614258 8.768311 13.228851 8.768311 21.16864l0 0c0 16.533752 -13.403259 29.937012 -29.937012 29.937012l0 0c-16.533752 0 -29.937012 -13.403259 -29.937012 -29.937012z" fill-rule="evenodd"></path><path fill="#d9ead3" d="m579.13385 352.5899l34.614197 -59.874023l34.614136 59.874023z" fill-rule="evenodd"></path><path stroke="#000000" stroke-width="3.0" stroke-linejoin="round" stroke-linecap="butt" d="m579.13385 352.5899l34.614197 -59.874023l34.614136 59.874023z" fill-rule="evenodd"></path><path fill="#e6b8af" d="m579.13385 399.6975l34.614197 -34.614166l34.614136 34.614166l-34.614136 34.614166z" fill-rule="evenodd"></path><path stroke="#000000" stroke-width="3.0" stroke-linejoin="round" stroke-linecap="butt" d="m579.13385 399.6975l34.614197 -34.614166l34.614136 34.614166l-34.614136 34.614166z" fill-rule="evenodd"></path><path fill="#000000" fill-opacity="0.0" d="m442.29922 446.805l273.66928 0l0 42.204712l-273.66928 0z" fill-rule="evenodd"></path><path fill="#000000" d="m533.50104 481.85312q0 2.390625 -1.78125 3.6875q-1.78125 1.296875 -5.0 1.296875q-3.40625 0 -5.3125 -1.078125l0 -2.40625q1.234375 0.625 2.640625 0.984375q1.421875 0.359375 2.734375 0.359375q2.03125 0 3.125 -0.640625q1.09375 -0.65625 1.09375 -1.984375q0 -1.0 -0.875 -1.703125q-0.859375 -0.71875 -3.375 -1.6875q-2.390625 -0.890625 -3.40625 -1.546875q-1.0 -0.671875 -1.5 -1.515625q-0.484375 -0.84375 -0.484375 -2.015625q0 -2.09375 1.703125 -3.296875q1.703125 -1.21875 4.671875 -1.21875q2.765625 0 5.40625 1.125l-0.921875 2.109375q-2.578125 -1.0625 -4.671875 -1.0625q-1.84375 0 -2.78125 0.578125q-0.9375 0.578125 -0.9375 1.59375q0 0.6875 0.34375 1.171875q0.359375 0.484375 1.140625 0.921875q0.78125 0.4375 3.0 1.265625q3.046875 1.109375 4.109375 2.234375q1.078125 1.125 1.078125 2.828125zm11.453125 4.984375q-3.796875 0 -6.0 -2.3125q-2.1875 -2.3125 -2.1875 -6.421875q0 -4.140625 2.03125 -6.578125q2.046875 -2.4375 5.484375 -2.4375q3.21875 0 5.09375 2.125q1.875 2.109375 1.875 5.578125l0 1.640625l-11.796875 0q0.078125 3.015625 1.515625 4.578125q1.453125 1.5625 4.078125 1.5625q2.765625 0 5.46875 -1.15625l0 2.3125q-1.375 0.59375 -2.609375 0.84375q-1.21875 0.265625 -2.953125 0.265625zm-0.703125 -15.578125q-2.0625 0 -3.296875 1.34375q-1.21875 1.34375 -1.4375 3.71875l8.953125 0q0 -2.453125 -1.09375 -3.75q-1.09375 -1.3125 -3.125 -1.3125zm19.234375 -2.171875q1.140625 0 2.046875 0.1875l-0.359375 2.40625q-1.0625 -0.234375 -1.875 -0.234375q-2.078125 0 -3.5625 1.6875q-1.46875 1.6875 -1.46875 4.203125l0 9.1875l-2.59375 0l0 -17.125l2.140625 0l0.296875 3.171875l0.125 0q0.953125 -1.671875 2.296875 -2.578125q1.34375 -0.90625 2.953125 -0.90625zm9.0 17.4375l-6.5 -17.125l2.78125 0l3.6875 10.15625q1.25 3.5625 1.46875 4.625l0.125 0q0.171875 -0.828125 1.078125 -3.421875q0.921875 -2.609375 4.109375 -11.359375l2.78125 0l-6.5 17.125l-3.03125 0zm14.875 0l-2.59375 0l0 -17.125l2.59375 0l0 17.125zm-2.8125 -21.765625q0 -0.890625 0.4375 -1.296875q0.4375 -0.421875 1.09375 -0.421875q0.625 0 1.078125 0.421875q0.453125 0.421875 0.453125 1.296875q0 0.875 -0.453125 1.3125q-0.453125 0.421875 -1.078125 0.421875q-0.65625 0 -1.09375 -0.421875q-0.4375 -0.4375 -0.4375 -1.3125zm15.15625 22.078125q-3.71875 0 -5.765625 -2.28125q-2.03125 -2.296875 -2.03125 -6.484375q0 -4.296875 2.0625 -6.640625q2.078125 -2.34375 5.90625 -2.34375q1.234375 0 2.46875 0.265625q1.234375 0.265625 1.9375 0.625l-0.796875 2.203125q-0.859375 -0.34375 -1.875 -0.5625q-1.015625 -0.234375 -1.796875 -0.234375q-5.21875 0 -5.21875 6.65625q0 3.15625 1.265625 4.84375q1.28125 1.6875 3.78125 1.6875q2.140625 0 4.390625 -0.921875l0 2.296875q-1.71875 0.890625 -4.328125 0.890625zm15.625 0q-3.796875 0 -6.0 -2.3125q-2.1875 -2.3125 -2.1875 -6.421875q0 -4.140625 2.03125 -6.578125q2.046875 -2.4375 5.484375 -2.4375q3.21875 0 5.09375 2.125q1.875 2.109375 1.875 5.578125l0 1.640625l-11.796875 0q0.078125 3.015625 1.515625 4.578125q1.453125 1.5625 4.078125 1.5625q2.765625 0 5.46875 -1.15625l0 2.3125q-1.375 0.59375 -2.609375 0.84375q-1.21875 0.265625 -2.953125 0.265625zm-0.703125 -15.578125q-2.0625 0 -3.296875 1.34375q-1.21875 1.34375 -1.4375 3.71875l8.953125 0q0 -2.453125 -1.09375 -3.75q-1.09375 -1.3125 -3.125 -1.3125zm22.46875 10.59375q0 2.390625 -1.78125 3.6875q-1.78125 1.296875 -5.0 1.296875q-3.40625 0 -5.3125 -1.078125l0 -2.40625q1.234375 0.625 2.640625 0.984375q1.421875 0.359375 2.734375 0.359375q2.03125 0 3.125 -0.640625q1.09375 -0.65625 1.09375 -1.984375q0 -1.0 -0.875 -1.703125q-0.859375 -0.71875 -3.375 -1.6875q-2.390625 -0.890625 -3.40625 -1.546875q-1.0 -0.671875 -1.5 -1.515625q-0.484375 -0.84375 -0.484375 -2.015625q0 -2.09375 1.703125 -3.296875q1.703125 -1.21875 4.671875 -1.21875q2.765625 0 5.40625 1.125l-0.921875 2.109375q-2.578125 -1.0625 -4.671875 -1.0625q-1.84375 0 -2.78125 0.578125q-0.9375 0.578125 -0.9375 1.59375q0 0.6875 0.34375 1.171875q0.359375 0.484375 1.140625 0.921875q0.78125 0.4375 3.0 1.265625q3.046875 1.109375 4.109375 2.234375q1.078125 1.125 1.078125 2.828125z" fill-rule="nonzero"></path><path fill="#b4a7d6" d="m360.8504 135.87927c12.473755 -34.926514 61.12137 0 0 44.905502c-61.1214 -44.905502 -12.473755 -79.832016 0 -44.905502z" fill-rule="evenodd"></path><path stroke="#000000" stroke-width="3.0" stroke-linejoin="round" stroke-linecap="butt" d="m360.8504 135.87927c12.473755 -34.926514 61.12137 0 0 44.905502c-61.1214 -44.905502 -12.473755 -79.832016 0 -44.905502z" fill-rule="evenodd"></path><path fill="#b4a7d6" d="m690.7953 306.34253c12.473755 -34.926514 61.1214 0 0 44.905487c-61.1214 -44.905487 -12.473755 -79.832 0 -44.905487z" fill-rule="evenodd"></path><path stroke="#000000" stroke-width="3.0" stroke-linejoin="round" stroke-linecap="butt" d="m690.7953 306.34253c12.473755 -34.926514 61.1214 0 0 44.905487c-61.1214 -44.905487 -12.473755 -79.832 0 -44.905487z" fill-rule="evenodd"></path><path fill="#b4a7d6" d="m350.33334 351.3727c12.473755 -34.926514 61.12137 0 0 44.905518c-61.1214 -44.905518 -12.473755 -79.83203 0 -44.905518z" fill-rule="evenodd"></path><path stroke="#000000" stroke-width="3.0" stroke-linejoin="round" stroke-linecap="butt" d="m350.33334 351.3727c12.473755 -34.926514 61.12137 0 0 44.905518c-61.1214 -44.905518 -12.473755 -79.83203 0 -44.905518z" fill-rule="evenodd"></path><path fill="#b4a7d6" d="m677.5486 100.08924c12.473755 -34.926514 61.121338 0 0 44.90551c-61.1214 -44.90551 -12.473755 -79.83202 0 -44.90551z" fill-rule="evenodd"></path><path stroke="#000000" stroke-width="3.0" stroke-linejoin="round" stroke-linecap="butt" d="m677.5486 100.08924c12.473755 -34.926514 61.121338 0 0 44.90551c-61.1214 -44.90551 -12.473755 -79.83202 0 -44.90551z" fill-rule="evenodd"></path><path fill="#f9cb9c" d="m198.33595 106.732285l0 0c0 -16.655518 13.501968 -30.157478 30.157486 -30.157478c16.655518 0 30.15747 13.501961 30.15747 30.157478c0 16.655518 -13.501953 30.157486 -30.15747 30.157486c-16.655518 0 -30.157486 -13.501968 -30.157486 -30.157486z" fill-rule="evenodd"></path><path fill="#c7a27c" d="m215.69048 97.71296c0 -1.7349472 1.4064484 -3.1414032 3.1414032 -3.1414032c1.7349396 0 3.1414032 1.406456 3.1414032 3.1414032c0 1.7349548 -1.4064636 3.1414108 -3.1414032 3.1414108c-1.7349548 0 -3.1414032 -1.406456 -3.1414032 -3.1414108m19.32312 0c0 -1.7349472 1.4064636 -3.1414032 3.1414032 -3.1414032c1.7349548 0 3.1414032 1.406456 3.1414032 3.1414032c0 1.7349548 -1.4064484 3.1414108 -3.1414032 3.1414108c-1.7349396 0 -3.1414032 -1.406456 -3.1414032 -3.1414108" fill-rule="evenodd"></path><path fill="#000000" fill-opacity="0.0" d="m212.14789 119.88416q16.34555 11.225822 32.652924 0" fill-rule="evenodd"></path><path fill="#000000" fill-opacity="0.0" d="m198.33595 106.732285l0 0c0 -16.655518 13.501968 -30.157478 30.157486 -30.157478c16.655518 0 30.15747 13.501961 30.15747 30.157478c0 16.655518 -13.501953 30.157486 -30.15747 30.157486c-16.655518 0 -30.157486 -13.501968 -30.157486 -30.157486z" fill-rule="evenodd"></path><path stroke="#000000" stroke-width="3.0" stroke-linejoin="round" stroke-linecap="butt" d="m215.69048 97.71296c0 -1.7349472 1.4064484 -3.1414032 3.1414032 -3.1414032c1.7349396 0 3.1414032 1.406456 3.1414032 3.1414032c0 1.7349548 -1.4064636 3.1414108 -3.1414032 3.1414108c-1.7349548 0 -3.1414032 -1.406456 -3.1414032 -3.1414108m19.32312 0c0 -1.7349472 1.4064636 -3.1414032 3.1414032 -3.1414032c1.7349548 0 3.1414032 1.406456 3.1414032 3.1414032c0 1.7349548 -1.4064484 3.1414108 -3.1414032 3.1414108c-1.7349396 0 -3.1414032 -1.406456 -3.1414032 -3.1414108" fill-rule="evenodd"></path><path stroke="#000000" stroke-width="3.0" stroke-linejoin="round" stroke-linecap="butt" d="m212.14789 119.88416q16.34555 11.225822 32.652924 0" fill-rule="evenodd"></path><path stroke="#000000" stroke-width="3.0" stroke-linejoin="round" stroke-linecap="butt" d="m198.33595 106.732285l0 0c0 -16.655518 13.501968 -30.157478 30.157486 -30.157478c16.655518 0 30.15747 13.501961 30.15747 30.157478c0 16.655518 -13.501953 30.157486 -30.15747 30.157486c-16.655518 0 -30.157486 -13.501968 -30.157486 -30.157486z" fill-rule="evenodd"></path><path fill="#f9cb9c" d="m647.39105 188.89896l0 0c0 -16.655518 13.502014 -30.157486 30.157532 -30.157486c16.655518 0 30.15747 13.501968 30.15747 30.157486c0 16.655518 -13.501953 30.15747 -30.15747 30.15747c-16.655518 0 -30.157532 -13.501953 -30.157532 -30.15747z" fill-rule="evenodd"></path><path fill="#c7a27c" d="m664.7456 179.87962c0 -1.7349396 1.4064331 -3.1414032 3.1413574 -3.1414032c1.7349854 0 3.1414185 1.4064636 3.1414185 3.1414032c0 1.7349548 -1.4064331 3.1414032 -3.1414185 3.1414032c-1.7349243 0 -3.1413574 -1.4064484 -3.1413574 -3.1414032m19.32312 0c0 -1.7349396 1.4064331 -3.1414032 3.1414185 -3.1414032c1.7349243 0 3.1413574 1.4064636 3.1413574 3.1414032c0 1.7349548 -1.4064331 3.1414032 -3.1413574 3.1414032c-1.7349854 0 -3.1414185 -1.4064484 -3.1414185 -3.1414032" fill-rule="evenodd"></path><path fill="#000000" fill-opacity="0.0" d="m661.203 202.05083q16.345581 11.225815 32.652954 0" fill-rule="evenodd"></path><path fill="#000000" fill-opacity="0.0" d="m647.39105 188.89896l0 0c0 -16.655518 13.502014 -30.157486 30.157532 -30.157486c16.655518 0 30.15747 13.501968 30.15747 30.157486c0 16.655518 -13.501953 30.15747 -30.15747 30.15747c-16.655518 0 -30.157532 -13.501953 -30.157532 -30.15747z" fill-rule="evenodd"></path><path stroke="#000000" stroke-width="3.0" stroke-linejoin="round" stroke-linecap="butt" d="m664.7456 179.87962c0 -1.7349396 1.4064331 -3.1414032 3.1413574 -3.1414032c1.7349854 0 3.1414185 1.4064636 3.1414185 3.1414032c0 1.7349548 -1.4064331 3.1414032 -3.1414185 3.1414032c-1.7349243 0 -3.1413574 -1.4064484 -3.1413574 -3.1414032m19.32312 0c0 -1.7349396 1.4064331 -3.1414032 3.1414185 -3.1414032c1.7349243 0 3.1413574 1.4064636 3.1413574 3.1414032c0 1.7349548 -1.4064331 3.1414032 -3.1413574 3.1414032c-1.7349854 0 -3.1414185 -1.4064484 -3.1414185 -3.1414032" fill-rule="evenodd"></path><path stroke="#000000" stroke-width="3.0" stroke-linejoin="round" stroke-linecap="butt" d="m661.203 202.05083q16.345581 11.225815 32.652954 0" fill-rule="evenodd"></path><path stroke="#000000" stroke-width="3.0" stroke-linejoin="round" stroke-linecap="butt" d="m647.39105 188.89896l0 0c0 -16.655518 13.502014 -30.157486 30.157532 -30.157486c16.655518 0 30.15747 13.501968 30.15747 30.157486c0 16.655518 -13.501953 30.15747 -30.15747 30.15747c-16.655518 0 -30.157532 -13.501953 -30.157532 -30.15747z" fill-rule="evenodd"></path><path fill="#f9cb9c" d="m254.12862 402.78873l0 0c0 -16.655518 13.501968 -30.157501 30.157486 -30.157501c16.655518 0 30.15747 13.501984 30.15747 30.157501c0 16.655518 -13.501953 30.15747 -30.15747 30.15747c-16.655518 0 -30.157486 -13.501953 -30.157486 -30.15747z" fill-rule="evenodd"></path><path fill="#c7a27c" d="m271.48312 393.76938c0 -1.7349243 1.4064636 -3.141388 3.141388 -3.141388c1.7349548 0 3.1414185 1.4064636 3.1414185 3.141388c0 1.7349548 -1.4064636 3.1414185 -3.1414185 3.1414185c-1.7349243 0 -3.141388 -1.4064636 -3.141388 -3.1414185m19.32312 0c0 -1.7349243 1.4064636 -3.141388 3.1414185 -3.141388c1.7349548 0 3.141388 1.4064636 3.141388 3.141388c0 1.7349548 -1.4064331 3.1414185 -3.141388 3.1414185c-1.7349548 0 -3.1414185 -1.4064636 -3.1414185 -3.1414185" fill-rule="evenodd"></path><path fill="#000000" fill-opacity="0.0" d="m267.94055 415.94058q16.34555 11.22583 32.652924 0" fill-rule="evenodd"></path><path fill="#000000" fill-opacity="0.0" d="m254.12862 402.78873l0 0c0 -16.655518 13.501968 -30.157501 30.157486 -30.157501c16.655518 0 30.15747 13.501984 30.15747 30.157501c0 16.655518 -13.501953 30.15747 -30.15747 30.15747c-16.655518 0 -30.157486 -13.501953 -30.157486 -30.15747z" fill-rule="evenodd"></path><path stroke="#000000" stroke-width="3.0" stroke-linejoin="round" stroke-linecap="butt" d="m271.48312 393.76938c0 -1.7349243 1.4064636 -3.141388 3.141388 -3.141388c1.7349548 0 3.1414185 1.4064636 3.1414185 3.141388c0 1.7349548 -1.4064636 3.1414185 -3.1414185 3.1414185c-1.7349243 0 -3.141388 -1.4064636 -3.141388 -3.1414185m19.32312 0c0 -1.7349243 1.4064636 -3.141388 3.1414185 -3.141388c1.7349548 0 3.141388 1.4064636 3.141388 3.141388c0 1.7349548 -1.4064331 3.1414185 -3.141388 3.1414185c-1.7349548 0 -3.1414185 -1.4064636 -3.1414185 -3.1414185" fill-rule="evenodd"></path><path stroke="#000000" stroke-width="3.0" stroke-linejoin="round" stroke-linecap="butt" d="m267.94055 415.94058q16.34555 11.22583 32.652924 0" fill-rule="evenodd"></path><path stroke="#000000" stroke-width="3.0" stroke-linejoin="round" stroke-linecap="butt" d="m254.12862 402.78873l0 0c0 -16.655518 13.501968 -30.157501 30.157486 -30.157501c16.655518 0 30.15747 13.501984 30.15747 30.157501c0 16.655518 -13.501953 30.15747 -30.15747 30.15747c-16.655518 0 -30.157486 -13.501953 -30.157486 -30.15747z" fill-rule="evenodd"></path><path fill="#f9cb9c" d="m505.67978 321.6824l0 0c0 -16.655518 13.501984 -30.15747 30.157501 -30.15747c16.655518 0 30.15747 13.501953 30.15747 30.15747c0 16.655518 -13.501953 30.157501 -30.15747 30.157501c-16.655518 0 -30.157501 -13.501984 -30.157501 -30.157501z" fill-rule="evenodd"></path><path fill="#c7a27c" d="m523.0343 312.6631c0 -1.7349548 1.4064331 -3.141388 3.1414185 -3.141388c1.7349243 0 3.1414185 1.4064331 3.1414185 3.141388c0 1.7349548 -1.4064941 3.1414185 -3.1414185 3.1414185c-1.7349854 0 -3.1414185 -1.4064636 -3.1414185 -3.1414185m19.32312 0c0 -1.7349548 1.4064331 -3.141388 3.1414185 -3.141388c1.7349243 0 3.1414185 1.4064331 3.1414185 3.141388c0 1.7349548 -1.4064941 3.1414185 -3.1414185 3.1414185c-1.7349854 0 -3.1414185 -1.4064636 -3.1414185 -3.1414185" fill-rule="evenodd"></path><path fill="#000000" fill-opacity="0.0" d="m519.4917 334.8343q16.345581 11.22583 32.652954 0" fill-rule="evenodd"></path><path fill="#000000" fill-opacity="0.0" d="m505.67978 321.6824l0 0c0 -16.655518 13.501984 -30.15747 30.157501 -30.15747c16.655518 0 30.15747 13.501953 30.15747 30.15747c0 16.655518 -13.501953 30.157501 -30.15747 30.157501c-16.655518 0 -30.157501 -13.501984 -30.157501 -30.157501z" fill-rule="evenodd"></path><path stroke="#000000" stroke-width="3.0" stroke-linejoin="round" stroke-linecap="butt" d="m523.0343 312.6631c0 -1.7349548 1.4064331 -3.141388 3.1414185 -3.141388c1.7349243 0 3.1414185 1.4064331 3.1414185 3.141388c0 1.7349548 -1.4064941 3.1414185 -3.1414185 3.1414185c-1.7349854 0 -3.1414185 -1.4064636 -3.1414185 -3.1414185m19.32312 0c0 -1.7349548 1.4064331 -3.141388 3.1414185 -3.141388c1.7349243 0 3.1414185 1.4064331 3.1414185 3.141388c0 1.7349548 -1.4064941 3.1414185 -3.1414185 3.1414185c-1.7349854 0 -3.1414185 -1.4064636 -3.1414185 -3.1414185" fill-rule="evenodd"></path><path stroke="#000000" stroke-width="3.0" stroke-linejoin="round" stroke-linecap="butt" d="m519.4917 334.8343q16.345581 11.22583 32.652954 0" fill-rule="evenodd"></path><path stroke="#000000" stroke-width="3.0" stroke-linejoin="round" stroke-linecap="butt" d="m505.67978 321.6824l0 0c0 -16.655518 13.501984 -30.15747 30.157501 -30.15747c16.655518 0 30.15747 13.501953 30.15747 30.15747c0 16.655518 -13.501953 30.157501 -30.15747 30.157501c-16.655518 0 -30.157501 -13.501984 -30.157501 -30.157501z" fill-rule="evenodd"></path><path fill="#d5a6bd" d="m607.2477 115.88189l12.252991 16.97773l-5.054199 2.0021362l15.433533 14.54834l-5.0542603 2.4293823l19.080383 24.358002l-32.358154 -18.667114l6.1711426 -2.591339l-20.105164 -11.957001l7.2043457 -3.694336l-21.227722 -12.543411z" fill-rule="evenodd"></path><path stroke="#000000" stroke-width="3.0" stroke-linejoin="round" stroke-linecap="butt" d="m607.2477 115.88189l12.252991 16.97773l-5.054199 2.0021362l15.433533 14.54834l-5.0542603 2.4293823l19.080383 24.358002l-32.358154 -18.667114l6.1711426 -2.591339l-20.105164 -11.957001l7.2043457 -3.694336l-21.227722 -12.543411z" fill-rule="evenodd"></path><path fill="#d5a6bd" d="m477.13742 325.97638l12.253021 16.977722l-5.0542297 2.0021362l15.433533 14.54834l-5.0542297 2.4293823l19.080383 24.358002l-32.358185 -18.667114l6.171173 -2.591339l-20.105194 -11.957001l7.2043457 -3.694336l-21.227722 -12.543396z" fill-rule="evenodd"></path><path stroke="#000000" stroke-width="3.0" stroke-linejoin="round" stroke-linecap="butt" d="m477.13742 325.97638l12.253021 16.977722l-5.0542297 2.0021362l15.433533 14.54834l-5.0542297 2.4293823l19.080383 24.358002l-32.358185 -18.667114l6.171173 -2.591339l-20.105194 -11.957001l7.2043457 -3.694336l-21.227722 -12.543396z" fill-rule="evenodd"></path><path fill="#d5a6bd" d="m172.57574 136.88977l12.253006 16.977722l-5.0542297 2.0021362l15.433533 14.54834l-5.0542145 2.4293823l19.080383 24.358002l-32.3582 -18.667114l6.1711884 -2.591339l-20.105194 -11.957001l7.204361 -3.694336l-21.227737 -12.543411z" fill-rule="evenodd"></path><path stroke="#000000" stroke-width="3.0" stroke-linejoin="round" stroke-linecap="butt" d="m172.57574 136.88977l12.253006 16.977722l-5.0542297 2.0021362l15.433533 14.54834l-5.0542145 2.4293823l19.080383 24.358002l-32.3582 -18.667114l6.1711884 -2.591339l-20.105194 -11.957001l7.204361 -3.694336l-21.227737 -12.543411z" fill-rule="evenodd"></path><path fill="#d5a6bd" d="m377.8041 258.06693l12.252991 16.977722l-5.0542297 2.0021362l15.433533 14.54834l-5.0542297 2.4293823l19.080414 24.358002l-32.358215 -18.667114l6.171173 -2.591339l-20.105194 -11.957001l7.204376 -3.694336l-21.227753 -12.543396z" fill-rule="evenodd"></path><path stroke="#000000" stroke-width="3.0" stroke-linejoin="round" stroke-linecap="butt" d="m377.8041 258.06693l12.252991 16.977722l-5.0542297 2.0021362l15.433533 14.54834l-5.0542297 2.4293823l19.080414 24.358002l-32.358215 -18.667114l6.171173 -2.591339l-20.105194 -11.957001l7.204376 -3.694336l-21.227753 -12.543396z" fill-rule="evenodd"></path><path fill="#1fc428" d="m383.31235 185.5l0 0c0 -16.533752 13.403229 -29.937012 29.936981 -29.937012l0 0c7.939789 0 15.554413 3.154068 21.16867 8.768356c5.6142883 5.614273 8.768341 13.228867 8.768341 21.168655l0 0c0 16.533752 -13.403229 29.937012 -29.937012 29.937012l0 0c-16.533752 0 -29.936981 -13.403259 -29.936981 -29.937012z" fill-rule="evenodd"></path><path stroke="#000000" stroke-width="3.0" stroke-linejoin="round" stroke-linecap="butt" d="m383.31235 185.5l0 0c0 -16.533752 13.403229 -29.937012 29.936981 -29.937012l0 0c7.939789 0 15.554413 3.154068 21.16867 8.768356c5.6142883 5.614273 8.768341 13.228867 8.768341 21.168655l0 0c0 16.533752 -13.403229 29.937012 -29.937012 29.937012l0 0c-16.533752 0 -29.936981 -13.403259 -29.936981 -29.937012z" fill-rule="evenodd"></path><path fill="#1fc428" d="m720.95013 106.73097l0 0c0 -16.533752 13.403259 -29.937012 29.937012 -29.937012l0 0c7.9397583 0 15.554382 3.154068 21.16864 8.768349c5.614319 5.6142807 8.768372 13.228874 8.768372 21.168663l0 0c0 16.533752 -13.403259 29.937012 -29.937012 29.937012l0 0c-16.533752 0 -29.937012 -13.403259 -29.937012 -29.937012z" fill-rule="evenodd"></path><path stroke="#000000" stroke-width="3.0" stroke-linejoin="round" stroke-linecap="butt" d="m720.95013 106.73097l0 0c0 -16.533752 13.403259 -29.937012 29.937012 -29.937012l0 0c7.9397583 0 15.554382 3.154068 21.16864 8.768349c5.614319 5.6142807 8.768372 13.228874 8.768372 21.168663l0 0c0 16.533752 -13.403259 29.937012 -29.937012 29.937012l0 0c-16.533752 0 -29.937012 -13.403259 -29.937012 -29.937012z" fill-rule="evenodd"></path><path fill="#1fc428" d="m456.03937 446.59448l0 0c0 -16.533752 13.403259 -29.937012 29.937012 -29.937012l0 0c7.939789 0 15.554382 3.1540833 21.16867 8.768341c5.6142883 5.6142883 8.768341 13.228882 8.768341 21.16867l0 0c0 16.533752 -13.403259 29.937012 -29.937012 29.937012l0 0c-16.533752 0 -29.937012 -13.403259 -29.937012 -29.937012z" fill-rule="evenodd"></path><path stroke="#000000" stroke-width="3.0" stroke-linejoin="round" stroke-linecap="butt" d="m456.03937 446.59448l0 0c0 -16.533752 13.403259 -29.937012 29.937012 -29.937012l0 0c7.939789 0 15.554382 3.1540833 21.16867 8.768341c5.6142883 5.6142883 8.768341 13.228882 8.768341 21.16867l0 0c0 16.533752 -13.403259 29.937012 -29.937012 29.937012l0 0c-16.533752 0 -29.937012 -13.403259 -29.937012 -29.937012z" fill-rule="evenodd"></path><path fill="#1fc428" d="m246.76115 339.20078l0 0c0 -16.533752 13.403244 -29.936981 29.936996 -29.936981l0 0c7.939789 0 15.554382 3.1540527 21.16867 8.768341c5.6142883 5.614258 8.768341 13.228851 8.768341 21.16864l0 0c0 16.533752 -13.403259 29.937012 -29.937012 29.937012l0 0c-16.533752 0 -29.936996 -13.403259 -29.936996 -29.937012z" fill-rule="evenodd"></path><path stroke="#000000" stroke-width="3.0" stroke-linejoin="round" stroke-linecap="butt" d="m246.76115 339.20078l0 0c0 -16.533752 13.403244 -29.936981 29.936996 -29.936981l0 0c7.939789 0 15.554382 3.1540527 21.16867 8.768341c5.6142883 5.614258 8.768341 13.228851 8.768341 21.16864l0 0c0 16.533752 -13.403259 29.937012 -29.937012 29.937012l0 0c-16.533752 0 -29.936996 -13.403259 -29.936996 -29.937012z" fill-rule="evenodd"></path><path fill="#ff00ff" d="m113.3462 106.06588l48.708656 -49.07087l18.220474 66.708664z" fill-rule="evenodd"></path><path stroke="#000000" stroke-width="3.0" stroke-linejoin="round" stroke-linecap="butt" d="m113.3462 106.06588l48.708656 -49.07087l18.220474 66.708664z" fill-rule="evenodd"></path><path fill="#ff00ff" d="m565.9945 207.96483l48.70868 -49.07086l18.220459 66.70865z" fill-rule="evenodd"></path><path stroke="#000000" stroke-width="3.0" stroke-linejoin="round" stroke-linecap="butt" d="m565.9945 207.96483l48.70868 -49.07086l18.220459 66.70865z" fill-rule="evenodd"></path><path fill="#ff00ff" d="m586.7872 368.6538l48.70862 -49.07086l18.22052 66.70865z" fill-rule="evenodd"></path><path stroke="#000000" stroke-width="3.0" stroke-linejoin="round" stroke-linecap="butt" d="m586.7872 368.6538l48.70862 -49.07086l18.22052 66.70865z" fill-rule="evenodd"></path><path fill="#ff00ff" d="m291.8029 444.18137l48.70868 -49.07086l18.220459 66.70865z" fill-rule="evenodd"></path><path stroke="#000000" stroke-width="3.0" stroke-linejoin="round" stroke-linecap="butt" d="m291.8029 444.18137l48.70868 -49.07086l18.220459 66.70865z" fill-rule="evenodd"></path><path fill="#ff9900" d="m170.5853 34.614174l34.61418 -34.614174l34.614166 34.614174l-34.614166 34.614174z" fill-rule="evenodd"></path><path stroke="#000000" stroke-width="3.0" stroke-linejoin="round" stroke-linecap="butt" d="m170.5853 34.614174l34.61418 -34.614174l34.614166 34.614174l-34.614166 34.614174z" fill-rule="evenodd"></path><path fill="#ff9900" d="m470.8294 96.220474l34.614166 -34.614174l34.614166 34.614174l-34.614166 34.614166z" fill-rule="evenodd"></path><path stroke="#000000" stroke-width="3.0" stroke-linejoin="round" stroke-linecap="butt" d="m470.8294 96.220474l34.614166 -34.614174l34.614166 34.614174l-34.614166 34.614166z" fill-rule="evenodd"></path><path fill="#ff9900" d="m532.4383 288.82022l34.614197 -34.61418l34.614197 34.61418l-34.614197 34.614166z" fill-rule="evenodd"></path><path stroke="#000000" stroke-width="3.0" stroke-linejoin="round" stroke-linecap="butt" d="m532.4383 288.82022l34.614197 -34.61418l34.614197 34.61418l-34.614197 34.614166z" fill-rule="evenodd"></path><path fill="#ff9900" d="m298.2756 339.2021l34.614166 -34.614166l34.614166 34.614166l-34.614166 34.614197z" fill-rule="evenodd"></path><path stroke="#000000" stroke-width="3.0" stroke-linejoin="round" stroke-linecap="butt" d="m298.2756 339.2021l34.614166 -34.614166l34.614166 34.614166l-34.614166 34.614197z" fill-rule="evenodd"></path><path fill="#000000" fill-opacity="0.0" d="m220.60892 113.485565l610.9292 0l0 71.27559l-610.9292 0z" fill-rule="evenodd"></path><path fill="#ffff00" d="m439.14697 30.60105l0 0c0 16.655516 -13.501953 30.15748 -30.15747 30.15748c-16.655518 0 -30.15747 -13.501965 -30.15747 -30.15748c0 -16.655516 13.501953 -30.15748 30.15747 -30.15748c16.655518 0 30.15747 13.501965 30.15747 30.15748z" fill-rule="evenodd"></path><path fill="#cbcb00" d="m421.79248 39.62037c0 1.734951 -1.4064636 3.141407 -3.1414185 3.141407c-1.7349548 0 -3.141388 -1.406456 -3.141388 -3.141407c0 -1.7349472 1.4064331 -3.1414032 3.141388 -3.1414032c1.7349548 0 3.1414185 1.406456 3.1414185 3.1414032m-19.32315 0c0 1.734951 -1.4064331 3.141407 -3.141388 3.141407c-1.7349548 0 -3.1414185 -1.406456 -3.1414185 -3.141407c0 -1.7349472 1.4064636 -3.1414032 3.1414185 -3.1414032c1.7349548 0 3.141388 1.406456 3.141388 3.1414032" fill-rule="evenodd"></path><path fill="#000000" fill-opacity="0.0" d="m425.33505 17.449171q-16.34555 -11.225821 -32.652924 0" fill-rule="evenodd"></path><path fill="#000000" fill-opacity="0.0" d="m439.14697 30.60105l0 0c0 16.655516 -13.501953 30.15748 -30.15747 30.15748c-16.655518 0 -30.15747 -13.501965 -30.15747 -30.15748c0 -16.655516 13.501953 -30.15748 30.15747 -30.15748c16.655518 0 30.15747 13.501965 30.15747 30.15748z" fill-rule="evenodd"></path><path stroke="#000000" stroke-width="3.0" stroke-linejoin="round" stroke-linecap="butt" d="m421.79248 39.62037c0 1.734951 -1.4064636 3.141407 -3.1414185 3.141407c-1.7349548 0 -3.141388 -1.406456 -3.141388 -3.141407c0 -1.7349472 1.4064331 -3.1414032 3.141388 -3.1414032c1.7349548 0 3.1414185 1.406456 3.1414185 3.1414032m-19.32315 0c0 1.734951 -1.4064331 3.141407 -3.141388 3.141407c-1.7349548 0 -3.1414185 -1.406456 -3.1414185 -3.141407c0 -1.7349472 1.4064636 -3.1414032 3.1414185 -3.1414032c1.7349548 0 3.141388 1.406456 3.141388 3.1414032" fill-rule="evenodd"></path><path stroke="#000000" stroke-width="3.0" stroke-linejoin="round" stroke-linecap="butt" d="m425.33505 17.449171q-16.34555 -11.225821 -32.652924 0" fill-rule="evenodd"></path><path stroke="#000000" stroke-width="3.0" stroke-linejoin="round" stroke-linecap="butt" d="m439.14697 30.60105l0 0c0 16.655516 -13.501953 30.15748 -30.15747 30.15748c-16.655518 0 -30.15747 -13.501965 -30.15747 -30.15748c0 -16.655516 13.501953 -30.15748 30.15747 -30.15748c16.655518 0 30.15747 13.501965 30.15747 30.15748z" fill-rule="evenodd"></path><path fill="#ffff00" d="m553.3123 174.63518l0 0c0 16.655502 -13.501953 30.15747 -30.15747 30.15747c-16.655518 0 -30.15747 -13.501968 -30.15747 -30.15747c0 -16.655518 13.501953 -30.157486 30.15747 -30.157486c16.655518 0 30.15747 13.501968 30.15747 30.157486z" fill-rule="evenodd"></path><path fill="#cbcb00" d="m535.9578 183.6545c0 1.7349396 -1.4064331 3.1414032 -3.1414185 3.1414032c-1.7349243 0 -3.1414185 -1.4064636 -3.1414185 -3.1414032c0 -1.7349548 1.4064941 -3.1414032 3.1414185 -3.1414032c1.7349854 0 3.1414185 1.4064484 3.1414185 3.1414032m-19.32312 0c0 1.7349396 -1.4064331 3.1414032 -3.1414185 3.1414032c-1.7349548 0 -3.141388 -1.4064636 -3.141388 -3.1414032c0 -1.7349548 1.4064331 -3.1414032 3.141388 -3.1414032c1.7349854 0 3.1414185 1.4064484 3.1414185 3.1414032" fill-rule="evenodd"></path><path fill="#000000" fill-opacity="0.0" d="m539.5004 161.48329q-16.345581 -11.225815 -32.652954 0" fill-rule="evenodd"></path><path fill="#000000" fill-opacity="0.0" d="m553.3123 174.63518l0 0c0 16.655502 -13.501953 30.15747 -30.15747 30.15747c-16.655518 0 -30.15747 -13.501968 -30.15747 -30.15747c0 -16.655518 13.501953 -30.157486 30.15747 -30.157486c16.655518 0 30.15747 13.501968 30.15747 30.157486z" fill-rule="evenodd"></path><path stroke="#000000" stroke-width="3.0" stroke-linejoin="round" stroke-linecap="butt" d="m535.9578 183.6545c0 1.7349396 -1.4064331 3.1414032 -3.1414185 3.1414032c-1.7349243 0 -3.1414185 -1.4064636 -3.1414185 -3.1414032c0 -1.7349548 1.4064941 -3.1414032 3.1414185 -3.1414032c1.7349854 0 3.1414185 1.4064484 3.1414185 3.1414032m-19.32312 0c0 1.7349396 -1.4064331 3.1414032 -3.1414185 3.1414032c-1.7349548 0 -3.141388 -1.4064636 -3.141388 -3.1414032c0 -1.7349548 1.4064331 -3.1414032 3.141388 -3.1414032c1.7349854 0 3.1414185 1.4064484 3.1414185 3.1414032" fill-rule="evenodd"></path><path stroke="#000000" stroke-width="3.0" stroke-linejoin="round" stroke-linecap="butt" d="m539.5004 161.48329q-16.345581 -11.225815 -32.652954 0" fill-rule="evenodd"></path><path stroke="#000000" stroke-width="3.0" stroke-linejoin="round" stroke-linecap="butt" d="m553.3123 174.63518l0 0c0 16.655502 -13.501953 30.15747 -30.15747 30.15747c-16.655518 0 -30.15747 -13.501968 -30.15747 -30.15747c0 -16.655518 13.501953 -30.157486 30.15747 -30.157486c16.655518 0 30.15747 13.501968 30.15747 30.157486z" fill-rule="evenodd"></path><path fill="#ffff00" d="m609.2913 374.15485l0 0c0 16.655518 -13.501953 30.157501 -30.15747 30.157501c-16.655518 0 -30.15747 -13.501984 -30.15747 -30.157501c0 -16.655518 13.501953 -30.15747 30.15747 -30.15747c16.655518 0 30.15747 13.501953 30.15747 30.15747z" fill-rule="evenodd"></path><path fill="#cbcb00" d="m591.9368 383.17416c0 1.7349548 -1.4064331 3.1414185 -3.1414185 3.1414185c-1.7349243 0 -3.1414185 -1.4064636 -3.1414185 -3.1414185c0 -1.7349243 1.4064941 -3.141388 3.1414185 -3.141388c1.7349854 0 3.1414185 1.4064636 3.1414185 3.141388m-19.32312 0c0 1.7349548 -1.4064941 3.1414185 -3.1414185 3.1414185c-1.7349243 0 -3.1414185 -1.4064636 -3.1414185 -3.1414185c0 -1.7349243 1.4064941 -3.141388 3.1414185 -3.141388c1.7349243 0 3.1414185 1.4064636 3.1414185 3.141388" fill-rule="evenodd"></path><path fill="#000000" fill-opacity="0.0" d="m595.47943 361.003q-16.345581 -11.22583 -32.652954 0" fill-rule="evenodd"></path><path fill="#000000" fill-opacity="0.0" d="m609.2913 374.15485l0 0c0 16.655518 -13.501953 30.157501 -30.15747 30.157501c-16.655518 0 -30.15747 -13.501984 -30.15747 -30.157501c0 -16.655518 13.501953 -30.15747 30.15747 -30.15747c16.655518 0 30.15747 13.501953 30.15747 30.15747z" fill-rule="evenodd"></path><path stroke="#000000" stroke-width="3.0" stroke-linejoin="round" stroke-linecap="butt" d="m591.9368 383.17416c0 1.7349548 -1.4064331 3.1414185 -3.1414185 3.1414185c-1.7349243 0 -3.1414185 -1.4064636 -3.1414185 -3.1414185c0 -1.7349243 1.4064941 -3.141388 3.1414185 -3.141388c1.7349854 0 3.1414185 1.4064636 3.1414185 3.141388m-19.32312 0c0 1.7349548 -1.4064941 3.1414185 -3.1414185 3.1414185c-1.7349243 0 -3.1414185 -1.4064636 -3.1414185 -3.1414185c0 -1.7349243 1.4064941 -3.141388 3.1414185 -3.141388c1.7349243 0 3.1414185 1.4064636 3.1414185 3.141388" fill-rule="evenodd"></path><path stroke="#000000" stroke-width="3.0" stroke-linejoin="round" stroke-linecap="butt" d="m595.47943 361.003q-16.345581 -11.22583 -32.652954 0" fill-rule="evenodd"></path><path stroke="#000000" stroke-width="3.0" stroke-linejoin="round" stroke-linecap="butt" d="m609.2913 374.15485l0 0c0 16.655518 -13.501953 30.157501 -30.15747 30.157501c-16.655518 0 -30.15747 -13.501984 -30.15747 -30.157501c0 -16.655518 13.501953 -30.15747 30.15747 -30.15747c16.655518 0 30.15747 13.501953 30.15747 30.15747z" fill-rule="evenodd"></path><path fill="#ffff00" d="m291.69553 315.78348l0 0c0 16.655518 -13.501953 30.15747 -30.15747 30.15747c-16.655518 0 -30.15747 -13.501953 -30.15747 -30.15747c0 -16.655518 13.501953 -30.157501 30.15747 -30.157501c16.655518 0 30.15747 13.501984 30.15747 30.157501z" fill-rule="evenodd"></path><path fill="#cbcb00" d="m274.34103 324.8028c0 1.7349243 -1.4064636 3.141388 -3.1414185 3.141388c-1.7349548 0 -3.141388 -1.4064636 -3.141388 -3.141388c0 -1.7349548 1.4064331 -3.1414185 3.141388 -3.1414185c1.7349548 0 3.1414185 1.4064636 3.1414185 3.1414185m-19.323135 0c0 1.7349243 -1.4064484 3.141388 -3.1414032 3.141388c-1.7349548 0 -3.1414032 -1.4064636 -3.1414032 -3.141388c0 -1.7349548 1.4064484 -3.1414185 3.1414032 -3.1414185c1.7349548 0 3.1414032 1.4064636 3.1414032 3.1414185" fill-rule="evenodd"></path><path fill="#000000" fill-opacity="0.0" d="m277.8836 302.6316q-16.34555 -11.22583 -32.652924 0" fill-rule="evenodd"></path><path fill="#000000" fill-opacity="0.0" d="m291.69553 315.78348l0 0c0 16.655518 -13.501953 30.15747 -30.15747 30.15747c-16.655518 0 -30.15747 -13.501953 -30.15747 -30.15747c0 -16.655518 13.501953 -30.157501 30.15747 -30.157501c16.655518 0 30.15747 13.501984 30.15747 30.157501z" fill-rule="evenodd"></path><path stroke="#000000" stroke-width="3.0" stroke-linejoin="round" stroke-linecap="butt" d="m274.34103 324.8028c0 1.7349243 -1.4064636 3.141388 -3.1414185 3.141388c-1.7349548 0 -3.141388 -1.4064636 -3.141388 -3.141388c0 -1.7349548 1.4064331 -3.1414185 3.141388 -3.1414185c1.7349548 0 3.1414185 1.4064636 3.1414185 3.1414185m-19.323135 0c0 1.7349243 -1.4064484 3.141388 -3.1414032 3.141388c-1.7349548 0 -3.1414032 -1.4064636 -3.1414032 -3.141388c0 -1.7349548 1.4064484 -3.1414185 3.1414032 -3.1414185c1.7349548 0 3.1414032 1.4064636 3.1414032 3.1414185" fill-rule="evenodd"></path><path stroke="#000000" stroke-width="3.0" stroke-linejoin="round" stroke-linecap="butt" d="m277.8836 302.6316q-16.34555 -11.22583 -32.652924 0" fill-rule="evenodd"></path><path stroke="#000000" stroke-width="3.0" stroke-linejoin="round" stroke-linecap="butt" d="m291.69553 315.78348l0 0c0 16.655518 -13.501953 30.15747 -30.15747 30.15747c-16.655518 0 -30.15747 -13.501953 -30.15747 -30.15747c0 -16.655518 13.501953 -30.157501 30.15747 -30.157501c16.655518 0 30.15747 13.501984 30.15747 30.157501z" fill-rule="evenodd"></path></g></svg>

