<?xml version="1.0" standalone="yes"?>

<svg version="1.1" viewBox="0.0 0.0 483.8057742782152 511.3569553805774" fill="none" stroke="none" stroke-linecap="square" stroke-miterlimit="10" xmlns="http://www.w3.org/2000/svg" xmlns:xlink="http://www.w3.org/1999/xlink"><clipPath id="p.0"><path d="m0 0l483.8058 0l0 511.35696l-483.8058 0l0 -511.35696z" clip-rule="nonzero"></path></clipPath><g clip-path="url(#p.0)"><path fill="#000000" fill-opacity="0.0" d="m0 0l483.8058 0l0 511.35696l-483.8058 0z" fill-rule="evenodd"></path><path fill="#ffffff" d="m21.007782 21.740158l179.65355 0l0 179.65355l-179.65355 0z" fill-rule="evenodd"></path><path stroke="#000000" stroke-width="3.0" stroke-linejoin="round" stroke-linecap="butt" d="m21.007782 21.740158l179.65355 0l0 179.65355l-179.65355 0z" fill-rule="evenodd"></path><path fill="#cfe2f3" d="m43.97638 74.149605l0 0c0 -16.533752 13.403252 -29.937008 29.937004 -29.937008l0 0c7.939789 0 15.554382 3.1540718 21.168663 8.768349c5.6142807 5.614277 8.768349 13.22887 8.768349 21.16866l0 0c0 16.533752 -13.403259 29.937012 -29.937012 29.937012l0 0c-16.533752 0 -29.937004 -13.403259 -29.937004 -29.937012z" fill-rule="evenodd"></path><path stroke="#000000" stroke-width="3.0" stroke-linejoin="round" stroke-linecap="butt" d="m43.97638 74.149605l0 0c0 -16.533752 13.403252 -29.937008 29.937004 -29.937008l0 0c7.939789 0 15.554382 3.1540718 21.168663 8.768349c5.6142807 5.614277 8.768349 13.22887 8.768349 21.16866l0 0c0 16.533752 -13.403259 29.937012 -29.937012 29.937012l0 0c-16.533752 0 -29.937004 -13.403259 -29.937004 -29.937012z" fill-rule="evenodd"></path><path fill="#d9ead3" d="m113.21785 104.08662l34.614166 -59.87402l34.61418 59.87402z" fill-rule="evenodd"></path><path stroke="#000000" stroke-width="3.0" stroke-linejoin="round" stroke-linecap="butt" d="m113.21785 104.08662l34.614166 -59.87402l34.61418 59.87402z" fill-rule="evenodd"></path><path fill="#e6b8af" d="m39.299213 150.87401l34.61417 -34.614166l34.614174 34.614166l-34.614174 34.61418z" fill-rule="evenodd"></path><path stroke="#000000" stroke-width="3.0" stroke-linejoin="round" stroke-linecap="butt" d="m39.299213 150.87401l34.61417 -34.614166l34.614174 34.614166l-34.614174 34.61418z" fill-rule="evenodd"></path><path fill="#ffffff" d="m278.93488 21.740158l179.65353 0l0 179.65355l-179.65353 0z" fill-rule="evenodd"></path><path stroke="#000000" stroke-width="3.0" stroke-linejoin="round" stroke-linecap="butt" d="m278.93488 21.740158l179.65353 0l0 179.65355l-179.65353 0z" fill-rule="evenodd"></path><path fill="#cfe2f3" d="m301.90347 74.149605l0 0c0 -16.533752 13.403229 -29.937008 29.936981 -29.937008l0 0c7.939789 0 15.554382 3.1540718 21.16867 8.768349c5.6142883 5.614277 8.768341 13.22887 8.768341 21.16866l0 0c0 16.533752 -13.403259 29.937012 -29.937012 29.937012l0 0c-16.533752 0 -29.936981 -13.403259 -29.936981 -29.937012z" fill-rule="evenodd"></path><path stroke="#000000" stroke-width="3.0" stroke-linejoin="round" stroke-linecap="butt" d="m301.90347 74.149605l0 0c0 -16.533752 13.403229 -29.937008 29.936981 -29.937008l0 0c7.939789 0 15.554382 3.1540718 21.16867 8.768349c5.6142883 5.614277 8.768341 13.22887 8.768341 21.16866l0 0c0 16.533752 -13.403259 29.937012 -29.937012 29.937012l0 0c-16.533752 0 -29.936981 -13.403259 -29.936981 -29.937012z" fill-rule="evenodd"></path><path fill="#d9ead3" d="m297.2263 184.6594l34.614166 -59.874016l34.614197 59.874016z" fill-rule="evenodd"></path><path stroke="#000000" stroke-width="3.0" stroke-linejoin="round" stroke-linecap="butt" d="m297.2263 184.6594l34.614166 -59.874016l34.614197 59.874016z" fill-rule="evenodd"></path><path fill="#e6b8af" d="m367.7919 74.149605l34.614197 -34.61417l34.614166 34.61417l-34.614166 34.614174z" fill-rule="evenodd"></path><path stroke="#000000" stroke-width="3.0" stroke-linejoin="round" stroke-linecap="butt" d="m367.7919 74.149605l34.614197 -34.61417l34.614166 34.61417l-34.614166 34.614174z" fill-rule="evenodd"></path><path fill="#ffffff" d="m21.007782 276.58334l179.65355 0l0 179.65353l-179.65355 0z" fill-rule="evenodd"></path><path stroke="#000000" stroke-width="3.0" stroke-linejoin="round" stroke-linecap="butt" d="m21.007782 276.58334l179.65355 0l0 179.65353l-179.65355 0z" fill-rule="evenodd"></path><path fill="#cfe2f3" d="m117.89501 328.99017l0 0c0 -16.533752 13.403252 -29.937012 29.937004 -29.937012l0 0c7.939789 0 15.554382 3.1540527 21.16867 8.768341c5.614273 5.6142883 8.768341 13.228882 8.768341 21.16867l0 0c0 16.533752 -13.403259 29.937012 -29.937012 29.937012l0 0c-16.533752 0 -29.937004 -13.403259 -29.937004 -29.937012z" fill-rule="evenodd"></path><path stroke="#000000" stroke-width="3.0" stroke-linejoin="round" stroke-linecap="butt" d="m117.89501 328.99017l0 0c0 -16.533752 13.403252 -29.937012 29.937004 -29.937012l0 0c7.939789 0 15.554382 3.1540527 21.16867 8.768341c5.614273 5.6142883 8.768341 13.228882 8.768341 21.16867l0 0c0 16.533752 -13.403259 29.937012 -29.937012 29.937012l0 0c-16.533752 0 -29.937004 -13.403259 -29.937004 -29.937012z" fill-rule="evenodd"></path><path fill="#d9ead3" d="m113.21785 435.6542l34.614166 -59.874023l34.61418 59.874023z" fill-rule="evenodd"></path><path stroke="#000000" stroke-width="3.0" stroke-linejoin="round" stroke-linecap="butt" d="m113.21785 435.6542l34.614166 -59.874023l34.61418 59.874023z" fill-rule="evenodd"></path><path fill="#e6b8af" d="m39.299213 328.9928l34.61417 -34.614197l34.614174 34.614197l-34.614174 34.614166z" fill-rule="evenodd"></path><path stroke="#000000" stroke-width="3.0" stroke-linejoin="round" stroke-linecap="butt" d="m39.299213 328.9928l34.61417 -34.614197l34.614174 34.614197l-34.614174 34.614166z" fill-rule="evenodd"></path><path fill="#000000" fill-opacity="0.0" d="m-21.322834 201.9323l273.66928 0l0 42.204712l-273.66928 0z" fill-rule="evenodd"></path><path fill="#000000" d="m85.08212 241.6523l0 -11.140625q0 -2.046875 -0.875 -3.0625q-0.875 -1.03125 -2.71875 -1.03125q-2.421875 0 -3.578125 1.390625q-1.15625 1.390625 -1.15625 4.28125l0 9.5625l-2.59375 0l0 -11.140625q0 -2.046875 -0.875 -3.0625q-0.875 -1.03125 -2.734375 -1.03125q-2.4375 0 -3.578125 1.46875q-1.125 1.453125 -1.125 4.78125l0 8.984375l-2.5937462 0l0 -17.125l2.1093712 0l0.421875 2.34375l0.125 0q0.734375 -1.25 2.0625 -1.953125q1.34375 -0.703125 3.0 -0.703125q4.015625 0 5.25 2.90625l0.125 0q0.765625 -1.34375 2.21875 -2.125q1.453125 -0.78125 3.3125 -0.78125q2.90625 0 4.34375 1.5q1.453125 1.484375 1.453125 4.765625l0 11.171875l-2.59375 0zm22.718758 -8.578125q0 4.1875 -2.1093826 6.546875q-2.109375 2.34375 -5.828125 2.34375q-2.296875 0 -4.078125 -1.078125q-1.78125 -1.078125 -2.75 -3.09375q-0.96875 -2.015625 -0.96875 -4.71875q0 -4.1875 2.09375 -6.515625q2.09375 -2.34375 5.8125 -2.34375q3.59375 0 5.703125 2.390625q2.1250076 2.390625 2.1250076 6.46875zm-13.046883 0q0 3.28125 1.3125 5.0q1.3125 1.71875 3.859375 1.71875q2.546875 0 3.859375 -1.703125q1.328125 -1.71875 1.328125 -5.015625q0 -3.265625 -1.328125 -4.953125q-1.3125 -1.703125 -3.890625 -1.703125q-2.546875 0 -3.84375 1.671875q-1.296875 1.671875 -1.296875 4.984375zm29.250008 6.28125l-0.140625 0q-1.796875 2.609375 -5.375 2.609375q-3.359375 0 -5.234375 -2.296875q-1.859375 -2.296875 -1.859375 -6.53125q0 -4.234375 1.875 -6.578125q1.875 -2.34375 5.21875 -2.34375q3.484375 0 5.34375 2.53125l0.203125 0l-0.109375 -1.234375l-0.0625 -1.203125l0 -6.96875l2.59375 0l0 24.3125l-2.109375 0l-0.34375 -2.296875zm-5.1875 0.4375q2.65625 0 3.84375 -1.4375q1.203125 -1.453125 1.203125 -4.671875l0 -0.546875q0 -3.640625 -1.21875 -5.1875q-1.203125 -1.5625 -3.859375 -1.5625q-2.28125 0 -3.5 1.78125q-1.203125 1.765625 -1.203125 5.0q0 3.28125 1.203125 4.953125q1.203125 1.671875 3.53125 1.671875zm20.375008 2.171875q-3.796875 0 -6.0 -2.3125q-2.1875 -2.3125 -2.1875 -6.421875q0 -4.140625 2.03125 -6.578125q2.046875 -2.4375 5.484375 -2.4375q3.21875 0 5.09375 2.125q1.875 2.109375 1.875 5.578125l0 1.640625l-11.796875 0q0.078125 3.015625 1.515625 4.578125q1.453125 1.5625 4.078125 1.5625q2.765625 0 5.46875 -1.15625l0 2.3125q-1.375 0.59375 -2.609375 0.84375q-1.21875 0.265625 -2.953125 0.265625zm-0.703125 -15.578125q-2.0625 0 -3.296875 1.34375q-1.21875 1.34375 -1.4375 3.71875l8.953125 0q0 -2.453125 -1.09375 -3.75q-1.09375 -1.3125 -3.125 -1.3125zm14.015625 15.265625l-2.59375 0l0 -24.3125l2.59375 0l0 24.3125zm16.546875 -4.671875q0 2.390625 -1.78125 3.6875q-1.78125 1.296875 -5.0 1.296875q-3.40625 0 -5.3125 -1.078125l0 -2.40625q1.234375 0.625 2.640625 0.984375q1.421875 0.359375 2.734375 0.359375q2.03125 0 3.125 -0.640625q1.09375 -0.65625 1.09375 -1.984375q0 -1.0 -0.875 -1.703125q-0.859375 -0.71875 -3.375 -1.6875q-2.390625 -0.890625 -3.40625 -1.546875q-1.0 -0.671875 -1.5 -1.515625q-0.484375 -0.84375 -0.484375 -2.015625q0 -2.09375 1.703125 -3.296875q1.703125 -1.21875 4.671875 -1.21875q2.765625 0 5.40625 1.125l-0.921875 2.109375q-2.578125 -1.0625 -4.671875 -1.0625q-1.84375 0 -2.78125 0.578125q-0.9375 0.578125 -0.9375 1.59375q0 0.6875 0.34375 1.171875q0.359375 0.484375 1.140625 0.921875q0.78125 0.4375 3.0 1.265625q3.046875 1.109375 4.109375 2.234375q1.078125 1.125 1.078125 2.828125z" fill-rule="nonzero"></path><path fill="#000000" fill-opacity="0.0" d="m231.92651 205.35748l273.66928 0l0 42.204727l-273.66928 0z" fill-rule="evenodd"></path><path fill="#000000" d="m298.17523 245.38998q-3.71875 0 -5.765625 -2.28125q-2.03125 -2.296875 -2.03125 -6.484375q0 -4.296875 2.0625 -6.640625q2.078125 -2.34375 5.90625 -2.34375q1.234375 0 2.46875 0.265625q1.234375 0.265625 1.9375 0.625l-0.796875 2.203125q-0.859375 -0.34375 -1.875 -0.5625q-1.015625 -0.234375 -1.796875 -0.234375q-5.21875 0 -5.21875 6.65625q0 3.15625 1.265625 4.84375q1.28125 1.6875 3.78125 1.6875q2.140625 0 4.390625 -0.921875l0 2.296875q-1.71875 0.890625 -4.328125 0.890625zm23.171875 -8.890625q0 4.1875 -2.109375 6.546875q-2.109375 2.34375 -5.828125 2.34375q-2.296875 0 -4.078125 -1.078125q-1.78125 -1.078125 -2.75 -3.09375q-0.96875 -2.015625 -0.96875 -4.71875q0 -4.1875 2.09375 -6.515625q2.09375 -2.34375 5.8125 -2.34375q3.59375 0 5.703125 2.390625q2.125 2.390625 2.125 6.46875zm-13.046875 0q0 3.28125 1.3125 5.0q1.3125 1.71875 3.859375 1.71875q2.546875 0 3.859375 -1.703125q1.328125 -1.71875 1.328125 -5.015625q0 -3.265625 -1.328125 -4.953125q-1.3125 -1.703125 -3.890625 -1.703125q-2.546875 0 -3.84375 1.671875q-1.296875 1.671875 -1.296875 4.984375zm29.3125 8.578125l0 -11.078125q0 -2.09375 -0.953125 -3.125q-0.953125 -1.03125 -2.984375 -1.03125q-2.6875 0 -3.9375 1.453125q-1.25 1.453125 -1.25 4.796875l0 8.984375l-2.59375 0l0 -17.125l2.109375 0l0.421875 2.34375l0.125 0q0.796875 -1.265625 2.234375 -1.953125q1.4375 -0.703125 3.203125 -0.703125q3.09375 0 4.65625 1.5q1.5625 1.484375 1.5625 4.765625l0 11.171875l-2.59375 0zm13.453125 -1.828125q0.6875 0 1.328125 -0.09375q0.640625 -0.109375 1.015625 -0.21875l0 1.984375q-0.421875 0.203125 -1.25 0.328125q-0.8125 0.140625 -1.46875 0.140625q-4.96875 0 -4.96875 -5.234375l0 -10.1875l-2.453125 0l0 -1.25l2.453125 -1.078125l1.09375 -3.65625l1.5 0l0 3.96875l4.96875 0l0 2.015625l-4.96875 0l0 10.078125q0 1.546875 0.734375 2.375q0.734375 0.828125 2.015625 0.828125zm13.578125 -15.609375q1.140625 0 2.046875 0.1875l-0.359375 2.40625q-1.0625 -0.234375 -1.875 -0.234375q-2.078125 0 -3.5625 1.6875q-1.46875 1.6875 -1.46875 4.203125l0 9.1875l-2.59375 0l0 -17.125l2.140625 0l0.296875 3.171875l0.125 0q0.953125 -1.671875 2.296875 -2.578125q1.34375 -0.90625 2.953125 -0.90625zm20.03125 8.859375q0 4.1875 -2.109375 6.546875q-2.109375 2.34375 -5.828125 2.34375q-2.296875 0 -4.078125 -1.078125q-1.78125 -1.078125 -2.75 -3.09375q-0.96875 -2.015625 -0.96875 -4.71875q0 -4.1875 2.09375 -6.515625q2.09375 -2.34375 5.8125 -2.34375q3.59375 0 5.703125 2.390625q2.125 2.390625 2.125 6.46875zm-13.046875 0q0 3.28125 1.3125 5.0q1.3125 1.71875 3.859375 1.71875q2.546875 0 3.859375 -1.703125q1.328125 -1.71875 1.328125 -5.015625q0 -3.265625 -1.328125 -4.953125q-1.3125 -1.703125 -3.890625 -1.703125q-2.546875 0 -3.84375 1.671875q-1.296875 1.671875 -1.296875 4.984375zm20.1875 8.578125l-2.59375 0l0 -24.3125l2.59375 0l0 24.3125zm8.09375 0l-2.59375 0l0 -24.3125l2.59375 0l0 24.3125zm12.734375 0.3125q-3.796875 0 -6.0 -2.3125q-2.1875 -2.3125 -2.1875 -6.421875q0 -4.140625 2.03125 -6.578125q2.046875 -2.4375 5.484375 -2.4375q3.21875 0 5.09375 2.125q1.875 2.109375 1.875 5.578125l0 1.640625l-11.796875 0q0.078125 3.015625 1.515625 4.578125q1.453125 1.5625 4.078125 1.5625q2.765625 0 5.46875 -1.15625l0 2.3125q-1.375 0.59375 -2.609375 0.84375q-1.21875 0.265625 -2.953125 0.265625zm-0.703125 -15.578125q-2.0625 0 -3.296875 1.34375q-1.21875 1.34375 -1.4375 3.71875l8.953125 0q0 -2.453125 -1.09375 -3.75q-1.09375 -1.3125 -3.125 -1.3125zm19.234375 -2.171875q1.140625 0 2.046875 0.1875l-0.359375 2.40625q-1.0625 -0.234375 -1.875 -0.234375q-2.078125 0 -3.5625 1.6875q-1.46875 1.6875 -1.46875 4.203125l0 9.1875l-2.59375 0l0 -17.125l2.140625 0l0.296875 3.171875l0.125 0q0.953125 -1.671875 2.296875 -2.578125q1.34375 -0.90625 2.953125 -0.90625zm16.296875 12.765625q0 2.390625 -1.78125 3.6875q-1.78125 1.296875 -5.0 1.296875q-3.40625 0 -5.3125 -1.078125l0 -2.40625q1.234375 0.625 2.640625 0.984375q1.421875 0.359375 2.734375 0.359375q2.03125 0 3.125 -0.640625q1.09375 -0.65625 1.09375 -1.984375q0 -1.0 -0.875 -1.703125q-0.859375 -0.71875 -3.375 -1.6875q-2.390625 -0.890625 -3.40625 -1.546875q-1.0 -0.671875 -1.5 -1.515625q-0.484375 -0.84375 -0.484375 -2.015625q0 -2.09375 1.703125 -3.296875q1.703125 -1.21875 4.671875 -1.21875q2.765625 0 5.40625 1.125l-0.921875 2.109375q-2.578125 -1.0625 -4.671875 -1.0625q-1.84375 0 -2.78125 0.578125q-0.9375 0.578125 -0.9375 1.59375q0 0.6875 0.34375 1.171875q0.359375 0.484375 1.140625 0.921875q0.78125 0.4375 3.0 1.265625q3.046875 1.109375 4.109375 2.234375q1.078125 1.125 1.078125 2.828125z" fill-rule="nonzero"></path><path fill="#000000" fill-opacity="0.0" d="m-26.0 451.64096l273.6693 0l0 42.204712l-273.6693 0z" fill-rule="evenodd"></path><path fill="#000000" d="m76.21746 491.36096l-6.5 -17.125l2.78125 0l3.6875 10.15625q1.25 3.5625 1.46875 4.625l0.125 0q0.171875 -0.828125 1.078125 -3.421875q0.921875 -2.609375 4.109375 -11.359375l2.78125 0l-6.5 17.125l-3.03125 0zm14.875 0l-2.59375 0l0 -17.125l2.59375 0l0 17.125zm-2.8125 -21.765625q0 -0.890625 0.4375 -1.296875q0.4375 -0.421875 1.09375 -0.421875q0.625 0 1.078125 0.421875q0.453125 0.421875 0.453125 1.296875q0 0.875 -0.453125 1.3125q-0.453125 0.421875 -1.078125 0.421875q-0.65625 0 -1.09375 -0.421875q-0.4375 -0.4375 -0.4375 -1.3125zm15.546883 22.078125q-3.7968826 0 -6.0000076 -2.3125q-2.1875 -2.3125 -2.1875 -6.421875q0 -4.140625 2.03125 -6.578125q2.046875 -2.4375 5.4843826 -2.4375q3.21875 0 5.09375 2.125q1.875 2.109375 1.875 5.578125l0 1.640625l-11.796883 0q0.078125 3.015625 1.515625 4.578125q1.453125 1.5625 4.0781326 1.5625q2.765625 0 5.46875 -1.15625l0 2.3125q-1.375 0.59375 -2.609375 0.84375q-1.21875 0.265625 -2.953125 0.265625zm-0.703125 -15.578125q-2.0625076 0 -3.2968826 1.34375q-1.21875 1.34375 -1.4375 3.71875l8.953133 0q0 -2.453125 -1.09375 -3.75q-1.09375 -1.3125 -3.125 -1.3125zm25.40625 15.265625l-3.140625 -10.046875q-0.296875 -0.921875 -1.109375 -4.1875l-0.125 0q-0.625 2.734375 -1.09375 4.21875l-3.234375 10.015625l-3.0 0l-4.671875 -17.125l2.71875 0q1.65625 6.453125 2.515625 9.828125q0.875 3.375 1.0 4.546875l0.125 0q0.171875 -0.890625 0.546875 -2.296875q0.390625 -1.421875 0.671875 -2.25l3.140625 -9.828125l2.8125 0l3.0625 9.828125q0.875 2.6875 1.1875 4.515625l0.125 0q0.0625 -0.5625 0.328125 -1.734375q0.28125 -1.171875 3.265625 -12.609375l2.6875 0l-4.734375 17.125l-3.078125 0zm21.953125 -4.671875q0 2.390625 -1.78125 3.6875q-1.78125 1.296875 -5.0 1.296875q-3.40625 0 -5.3125 -1.078125l0 -2.40625q1.234375 0.625 2.640625 0.984375q1.421875 0.359375 2.734375 0.359375q2.03125 0 3.125 -0.640625q1.09375 -0.65625 1.09375 -1.984375q0 -1.0 -0.875 -1.703125q-0.859375 -0.71875 -3.375 -1.6875q-2.390625 -0.890625 -3.40625 -1.546875q-1.0 -0.671875 -1.5 -1.515625q-0.484375 -0.84375 -0.484375 -2.015625q0 -2.09375 1.703125 -3.296875q1.703125 -1.21875 4.671875 -1.21875q2.765625 0 5.40625 1.125l-0.921875 2.109375q-2.578125 -1.0625 -4.671875 -1.0625q-1.84375 0 -2.78125 0.578125q-0.9375 0.578125 -0.9375 1.59375q0 0.6875 0.34375 1.171875q0.359375 0.484375 1.140625 0.921875q0.78125 0.4375 3.0 1.265625q3.046875 1.109375 4.109375 2.234375q1.078125 1.125 1.078125 2.828125z" fill-rule="nonzero"></path><path fill="#ffffff" d="m278.9343 276.58203l179.65353 0l0 179.65353l-179.65353 0z" fill-rule="evenodd"></path><path stroke="#000000" stroke-width="3.0" stroke-linejoin="round" stroke-linecap="butt" d="m278.9343 276.58203l179.65353 0l0 179.65353l-179.65353 0z" fill-rule="evenodd"></path><path fill="#cfe2f3" d="m301.9029 407.6227l0 0c0 -16.533752 13.403259 -29.937012 29.937012 -29.937012l0 0c7.939789 0 15.554382 3.1540833 21.16864 8.768341c5.6142883 5.6142883 8.768372 13.228882 8.768372 21.16867l0 0c0 16.533752 -13.403259 29.937012 -29.937012 29.937012l0 0c-16.533752 0 -29.937012 -13.403259 -29.937012 -29.937012z" fill-rule="evenodd"></path><path stroke="#000000" stroke-width="3.0" stroke-linejoin="round" stroke-linecap="butt" d="m301.9029 407.6227l0 0c0 -16.533752 13.403259 -29.937012 29.937012 -29.937012l0 0c7.939789 0 15.554382 3.1540833 21.16864 8.768341c5.6142883 5.6142883 8.768372 13.228882 8.768372 21.16867l0 0c0 16.533752 -13.403259 29.937012 -29.937012 29.937012l0 0c-16.533752 0 -29.937012 -13.403259 -29.937012 -29.937012z" fill-rule="evenodd"></path><path fill="#d9ead3" d="m368.76117 357.42456l34.614166 -59.874023l34.614166 59.874023z" fill-rule="evenodd"></path><path stroke="#000000" stroke-width="3.0" stroke-linejoin="round" stroke-linecap="butt" d="m368.76117 357.42456l34.614166 -59.874023l34.614166 59.874023z" fill-rule="evenodd"></path><path fill="#e6b8af" d="m368.76117 404.53217l34.614166 -34.614166l34.614166 34.614166l-34.614166 34.614166z" fill-rule="evenodd"></path><path stroke="#000000" stroke-width="3.0" stroke-linejoin="round" stroke-linecap="butt" d="m368.76117 404.53217l34.614166 -34.614166l34.614166 34.614166l-34.614166 34.614166z" fill-rule="evenodd"></path><path fill="#000000" fill-opacity="0.0" d="m231.92651 451.63965l273.66928 0l0 42.204712l-273.66928 0z" fill-rule="evenodd"></path><path fill="#000000" d="m323.12836 486.68777q0 2.390625 -1.78125 3.6875q-1.78125 1.296875 -5.0 1.296875q-3.40625 0 -5.3125 -1.078125l0 -2.40625q1.234375 0.625 2.640625 0.984375q1.421875 0.359375 2.734375 0.359375q2.03125 0 3.125 -0.640625q1.09375 -0.65625 1.09375 -1.984375q0 -1.0 -0.875 -1.703125q-0.859375 -0.71875 -3.375 -1.6875q-2.390625 -0.890625 -3.40625 -1.546875q-1.0 -0.671875 -1.5 -1.515625q-0.484375 -0.84375 -0.484375 -2.015625q0 -2.09375 1.703125 -3.296875q1.703125 -1.21875 4.671875 -1.21875q2.765625 0 5.40625 1.125l-0.921875 2.109375q-2.578125 -1.0625 -4.671875 -1.0625q-1.84375 0 -2.78125 0.578125q-0.9375 0.578125 -0.9375 1.59375q0 0.6875 0.34375 1.171875q0.359375 0.484375 1.140625 0.921875q0.78125 0.4375 3.0 1.265625q3.046875 1.109375 4.109375 2.234375q1.078125 1.125 1.078125 2.828125zm11.453125 4.984375q-3.796875 0 -6.0 -2.3125q-2.1875 -2.3125 -2.1875 -6.421875q0 -4.140625 2.03125 -6.578125q2.046875 -2.4375 5.484375 -2.4375q3.21875 0 5.09375 2.125q1.875 2.109375 1.875 5.578125l0 1.640625l-11.796875 0q0.078125 3.015625 1.515625 4.578125q1.453125 1.5625 4.078125 1.5625q2.765625 0 5.46875 -1.15625l0 2.3125q-1.375 0.59375 -2.609375 0.84375q-1.21875 0.265625 -2.953125 0.265625zm-0.703125 -15.578125q-2.0625 0 -3.296875 1.34375q-1.21875 1.34375 -1.4375 3.71875l8.953125 0q0 -2.453125 -1.09375 -3.75q-1.09375 -1.3125 -3.125 -1.3125zm19.234375 -2.171875q1.140625 0 2.046875 0.1875l-0.359375 2.40625q-1.0625 -0.234375 -1.875 -0.234375q-2.078125 0 -3.5625 1.6875q-1.46875 1.6875 -1.46875 4.203125l0 9.1875l-2.59375 0l0 -17.125l2.140625 0l0.296875 3.171875l0.125 0q0.953125 -1.671875 2.296875 -2.578125q1.34375 -0.90625 2.953125 -0.90625zm9.0 17.4375l-6.5 -17.125l2.78125 0l3.6875 10.15625q1.25 3.5625 1.46875 4.625l0.125 0q0.171875 -0.828125 1.078125 -3.421875q0.921875 -2.609375 4.109375 -11.359375l2.78125 0l-6.5 17.125l-3.03125 0zm14.875 0l-2.59375 0l0 -17.125l2.59375 0l0 17.125zm-2.8125 -21.765625q0 -0.890625 0.4375 -1.296875q0.4375 -0.421875 1.09375 -0.421875q0.625 0 1.078125 0.421875q0.453125 0.421875 0.453125 1.296875q0 0.875 -0.453125 1.3125q-0.453125 0.421875 -1.078125 0.421875q-0.65625 0 -1.09375 -0.421875q-0.4375 -0.4375 -0.4375 -1.3125zm15.15625 22.078125q-3.71875 0 -5.765625 -2.28125q-2.03125 -2.296875 -2.03125 -6.484375q0 -4.296875 2.0625 -6.640625q2.078125 -2.34375 5.90625 -2.34375q1.234375 0 2.46875 0.265625q1.234375 0.265625 1.9375 0.625l-0.796875 2.203125q-0.859375 -0.34375 -1.875 -0.5625q-1.015625 -0.234375 -1.796875 -0.234375q-5.21875 0 -5.21875 6.65625q0 3.15625 1.265625 4.84375q1.28125 1.6875 3.78125 1.6875q2.140625 0 4.390625 -0.921875l0 2.296875q-1.71875 0.890625 -4.328125 0.890625zm15.625 0q-3.796875 0 -6.0 -2.3125q-2.1875 -2.3125 -2.1875 -6.421875q0 -4.140625 2.03125 -6.578125q2.046875 -2.4375 5.484375 -2.4375q3.21875 0 5.09375 2.125q1.875 2.109375 1.875 5.578125l0 1.640625l-11.796875 0q0.078125 3.015625 1.515625 4.578125q1.453125 1.5625 4.078125 1.5625q2.765625 0 5.46875 -1.15625l0 2.3125q-1.375 0.59375 -2.609375 0.84375q-1.21875 0.265625 -2.953125 0.265625zm-0.703125 -15.578125q-2.0625 0 -3.296875 1.34375q-1.21875 1.34375 -1.4375 3.71875l8.953125 0q0 -2.453125 -1.09375 -3.75q-1.09375 -1.3125 -3.125 -1.3125zm22.46875 10.59375q0 2.390625 -1.78125 3.6875q-1.78125 1.296875 -5.0 1.296875q-3.40625 0 -5.3125 -1.078125l0 -2.40625q1.234375 0.625 2.640625 0.984375q1.421875 0.359375 2.734375 0.359375q2.03125 0 3.125 -0.640625q1.09375 -0.65625 1.09375 -1.984375q0 -1.0 -0.875 -1.703125q-0.859375 -0.71875 -3.375 -1.6875q-2.390625 -0.890625 -3.40625 -1.546875q-1.0 -0.671875 -1.5 -1.515625q-0.484375 -0.84375 -0.484375 -2.015625q0 -2.09375 1.703125 -3.296875q1.703125 -1.21875 4.671875 -1.21875q2.765625 0 5.40625 1.125l-0.921875 2.109375q-2.578125 -1.0625 -4.671875 -1.0625q-1.84375 0 -2.78125 0.578125q-0.9375 0.578125 -0.9375 1.59375q0 0.6875 0.34375 1.171875q0.359375 0.484375 1.140625 0.921875q0.78125 0.4375 3.0 1.265625q3.046875 1.109375 4.109375 2.234375q1.078125 1.125 1.078125 2.828125z" fill-rule="nonzero"></path></g></svg>

